<?xml version="1.0" encoding="UTF-8"?>
<svg xmlns="http://www.w3.org/2000/svg">
  <symbol id="btc" viewBox="0 0 32 32">
    <path
      d="M31.5195 19.8705C29.3826 28.442 20.701 33.6584 12.1285 31.521C3.55955 29.3841 -1.65691 20.702 0.480946 12.1312C2.61692 3.55871 11.2985 -1.65813 19.8683 0.47878C28.4403 2.6157 33.6564 11.2987 31.5192 19.8706L31.5194 19.8705H31.5195Z"
      fill="#F7931A" />
    <path
      d="M23.0553 13.7204C23.3738 11.5911 21.7527 10.4466 19.536 9.68306L20.2551 6.79881L18.4994 6.36132L17.7994 9.16964C17.3378 9.05452 16.8638 8.94605 16.3927 8.83851L17.0978 6.01166L15.3431 5.57417L14.6236 8.45749C14.2417 8.37052 13.8665 8.28457 13.5025 8.19401L13.5046 8.18494L11.0834 7.58033L10.6163 9.45556C10.6163 9.45556 11.9189 9.75415 11.8915 9.77253C12.6025 9.94998 12.731 10.4206 12.7097 10.7937L11.8905 14.0795C11.9395 14.092 12.003 14.1099 12.0731 14.1381C12.0145 14.1236 11.9522 14.1077 11.8875 14.0922L10.7393 18.6952C10.6525 18.9112 10.4319 19.2354 9.93483 19.1123C9.95243 19.1378 8.65874 18.7938 8.65874 18.7938L7.78705 20.8036L10.0719 21.3731C10.4969 21.4797 10.9134 21.5913 11.3236 21.6961L10.5971 24.6135L12.3508 25.051L13.0703 22.1646C13.5494 22.2946 14.0143 22.4146 14.4695 22.5277L13.7524 25.4005L15.5082 25.838L16.2347 22.9261C19.2286 23.4927 21.4798 23.2643 22.4273 20.5563C23.1908 18.376 22.3893 17.1185 20.8142 16.2984C21.9614 16.0338 22.8255 15.2793 23.0559 13.7206L23.0554 13.7202L23.0553 13.7204ZM19.0439 19.3455C18.5013 21.5257 14.8304 20.3471 13.6403 20.0516L14.6044 16.1866C15.7945 16.4837 19.6109 17.0717 19.0439 19.3455H19.0439ZM19.5869 13.6888C19.0919 15.672 16.0366 14.6644 15.0455 14.4174L15.9196 10.9121C16.9107 11.1591 20.1025 11.6202 19.587 13.6888H19.5869Z"
      fill="white" />
  </symbol>
  <symbol id="eth" viewBox="0 0 32 32">
    <path d="M15.9971 0L15.7824 0.729237V21.8881L15.9971 22.1023L25.8186 16.2967L15.9971 0Z" fill="#343434" />
    <path d="M15.9971 0L6.17535 16.2967L15.9971 22.1023V11.8324V0Z" fill="#8C8C8C" />
    <path d="M15.9971 23.9619L15.8761 24.1094V31.6465L15.9971 31.9997L25.8246 18.1593L15.9971 23.9619Z"
      fill="#3C3C3B" />
    <path d="M15.9971 31.9997V23.9619L6.17535 18.1593L15.9971 31.9997Z" fill="#8C8C8C" />
    <path d="M15.9971 22.1023L25.8187 16.2967L15.9971 11.8324V22.1023Z" fill="#141414" />
    <path d="M6.17535 16.2967L15.9971 22.1023V11.8324L6.17535 16.2967Z" fill="#393939" />
  </symbol>
  <symbol id="usdt" viewBox="0 0 32 32">
    <path fill-rule="evenodd" clip-rule="evenodd"
      d="M5.85926 4.1367L0.0245372 16.3925C0.00233437 16.4381 -0.00470155 16.4896 0.00445833 16.5395C0.0136182 16.5894 0.0384934 16.635 0.0754461 16.6697L15.8336 31.7699C15.8784 31.8128 15.938 31.8368 16 31.8368C16.062 31.8368 16.1217 31.8128 16.1664 31.7699L31.9246 16.6707C31.9616 16.6359 31.9864 16.5903 31.9956 16.5404C32.0048 16.4906 31.9977 16.4391 31.9755 16.3935L26.1408 4.13764C26.122 4.09648 26.0917 4.06161 26.0536 4.0372C26.0154 4.0128 25.9711 3.99988 25.9258 4H6.07609C6.03062 3.99943 5.98594 4.01204 5.94747 4.03629C5.90899 4.06055 5.87836 4.09542 5.85926 4.1367Z"
      fill="#50AF95" />
    <path fill-rule="evenodd" clip-rule="evenodd"
      d="M18.0246 17.6511C17.9114 17.6596 17.3269 17.6945 16.0231 17.6945C14.9861 17.6945 14.2498 17.6634 13.9914 17.6511C9.98379 17.4748 6.99242 16.7772 6.99242 15.9419C6.99242 15.1066 9.98379 14.4099 13.9914 14.2308V16.9563C14.2535 16.9752 15.004 17.0195 16.041 17.0195C17.2854 17.0195 17.9086 16.9676 18.0208 16.9573V14.2327C22.02 14.4109 25.0047 15.1085 25.0047 15.9419C25.0047 16.7753 22.0209 17.4729 18.0208 17.6502L18.0246 17.6511ZM18.0246 13.9508V11.5119H23.6057V7.79271H8.41033V11.5119H13.9905V13.9499C9.4549 14.1582 6.04401 15.0567 6.04401 16.1333C6.04401 17.2099 9.4549 18.1074 13.9905 18.3167V26.1322H18.0236V18.3139C22.5489 18.1055 25.9541 17.208 25.9541 16.1323C25.9541 15.0567 22.5517 14.1592 18.0236 13.9499L18.0246 13.9508Z"
      fill="white" />
  </symbol>
  <symbol id="usdc" viewBox="0 0 32 32" fill="white">
    <path
      d="M16 32C24.8667 32 32 24.8667 32 16C32 7.13328 24.8667 0 16 0C7.13328 0 0 7.13328 0 16C0 24.8667 7.13328 32 16 32Z"
      fill="#2775CA" />
    <path
      d="M20.4 18.5333C20.4 16.2 19 15.4 16.2 15.0667C14.2 14.8 13.8 14.2667 13.8 13.3333C13.8 12.3998 14.4667 11.8 15.8 11.8C17 11.8 17.6667 12.2 18 13.2C18.0667 13.4 18.2667 13.5333 18.4667 13.5333H19.5333C19.8 13.5333 20 13.3333 20 13.0667V13C19.7333 11.5333 18.5333 10.4 17 10.2667V8.66672C17 8.4 16.8 8.2 16.4667 8.13328H15.4667C15.2 8.13328 15 8.33328 14.9333 8.66672V10.2C12.9333 10.4667 11.6667 11.8 11.6667 13.4667C11.6667 15.6667 13 16.5333 15.8 16.8667C17.6667 17.2 18.2667 17.6 18.2667 18.6667C18.2667 19.7335 17.3333 20.4667 16.0667 20.4667C14.3333 20.4667 13.7333 19.7333 13.5333 18.7333C13.4667 18.4667 13.2667 18.3333 13.0667 18.3333H11.9333C11.6667 18.3333 11.4667 18.5333 11.4667 18.8V18.8667C11.7333 20.5333 12.8 21.7333 15 22.0667V23.6667C15 23.9333 15.2 24.1333 15.5333 24.2H16.5333C16.8 24.2 17 24 17.0667 23.6667V22.0667C19.0667 21.7333 20.4 20.3333 20.4 18.5333Z" />
    <path
      d="M12.6 25.5334C7.40002 23.6668 4.7333 17.8668 6.66674 12.7333C7.66675 9.9333 9.86675 7.80001 12.6 6.80001C12.8668 6.66673 13 6.46673 13 6.13329V5.2C13 4.93328 12.8668 4.73328 12.6 4.66672C12.5333 4.66672 12.4 4.66672 12.3333 4.73328C6.00002 6.73329 2.5333 13.4668 4.5333 19.8001C5.7333 23.5334 8.60003 26.4001 12.3333 27.6001C12.6 27.7334 12.8668 27.6001 12.9333 27.3334C13 27.2668 13 27.2001 13 27.0668V26.1334C13 25.9334 12.8 25.6668 12.6 25.5334ZM19.6668 4.73328C19.4 4.6 19.1333 4.73328 19.0668 5C19 5.06672 19 5.13328 19 5.26672V6.20001C19 6.46673 19.2 6.73329 19.4 6.86673C24.6001 8.7333 27.2668 14.5333 25.3333 19.6668C24.3333 22.4668 22.1333 24.6001 19.4 25.6001C19.1333 25.7334 19 25.9334 19 26.2668V27.2001C19 27.4668 19.1333 27.6668 19.4 27.7334C19.4668 27.7334 19.6 27.7334 19.6668 27.6668C26.0001 25.6668 29.4668 18.9333 27.4668 12.6C26.2668 8.80002 23.3333 5.93329 19.6668 4.73328Z" />
  </symbol>


  <symbol id="sol" viewBox="0 0 32 32">
    <path
      d="M6 22C6 22 6 22 7 22H31C31 22 31 23 31 23L26 28C26 28 26 28 25 28H1C1 28 1 27 1 27L6 22ZM6 4C6 4 6 4 7 4H31C31 4 31 5 31 5L26 10C26 10 26 10 25 10H1C1 10 1 9 1 9L6 4ZM26 13C26 13 26 13 25 13H1C1 13 1 13 1 14L6 19C6 19 6 19 7 19H31C31 19 31 18 31 18L26 13Z" />

  </symbol>
  <symbol id="dot" viewBox="0 0 32 32" fill="#E6007A">
    <path
      d="M15.9989 6.71176C19.1761 6.71176 21.7518 5.20928 21.7518 3.35588C21.7518 1.50248 19.1761 0 15.9989 0C12.8216 0 10.2459 1.50248 10.2459 3.35588C10.2459 5.20928 12.8216 6.71176 15.9989 6.71176Z" />
    <path
      d="M15.9989 31.9977C19.1761 31.9977 21.7518 30.4953 21.7518 28.6418C21.7518 26.7884 19.1761 25.286 15.9989 25.286C12.8216 25.286 10.2459 26.7884 10.2459 28.6418C10.2459 30.4953 12.8216 31.9977 15.9989 31.9977Z" />
    <path
      d="M7.9817 11.3571C9.57033 8.59736 9.56002 5.60842 7.95867 4.68109C6.35732 3.75376 3.77132 5.23921 2.18269 7.99894C0.594055 10.7587 0.604366 13.7476 2.20572 14.6749C3.80707 15.6023 6.39306 14.1168 7.9817 11.3571Z" />
    <path
      d="M29.8126 23.9985C31.4012 21.2388 31.3918 18.2504 29.7915 17.3237C28.1913 16.397 25.6061 17.883 24.0175 20.6427C22.4288 23.4024 22.4383 26.3908 24.0386 27.3175C25.6388 28.2442 28.224 26.7583 29.8126 23.9985Z" />
    <path
      d="M7.95947 27.3168C9.56083 26.3895 9.57114 23.4005 7.9825 20.6408C6.39387 17.8811 3.80787 16.3956 2.20652 17.3229C0.605161 18.2503 0.59485 21.2392 2.18349 23.9989C3.77212 26.7587 6.35812 28.2441 7.95947 27.3168Z" />
    <path
      d="M29.7928 14.6757C31.3931 13.749 31.4025 10.7606 29.8139 8.00083C28.2253 5.2411 25.6402 3.75514 24.0399 4.68184C22.4397 5.60855 22.4302 8.59699 24.0189 11.3567C25.6075 14.1165 28.1926 15.6024 29.7928 14.6757Z" />
  </symbol>
  <symbol id="doge" viewBox="0 0 32 32" fill-rule="evenodd" clip-rule="evenodd">
    <path fill="#988430"
      d="M16 32C24.8366 32 32 24.8366 32 16C32 7.16344 24.8366 0 16 0C7.16344 0 0 7.16344 0 16C0 24.8366 7.16344 32 16 32Z" />
    <path fill="#BA9F33"
      d="M16 31.1612C24.3733 31.1612 31.1611 24.3733 31.1611 16C31.1611 7.62671 24.3733 0.838821 16 0.838821C7.62669 0.838821 0.838806 7.62671 0.838806 16C0.838806 24.3733 7.62669 31.1612 16 31.1612Z" />
    <path fill="#CFB66C"
      d="M6.99543 14.2913C6.9048 14.2085 6.80906 14.1256 6.72099 14.0428C6.63293 13.96 6.54248 13.8771 6.45185 13.7943L6.18254 13.5383C6.13851 13.4943 6.09192 13.4555 6.04788 13.4113C6.00385 13.3726 5.95214 13.3286 5.90811 13.2896C5.55073 12.9505 5.19131 12.6114 4.83888 12.2721C5.20394 12.6061 5.56131 12.9377 5.92637 13.2767L6.05318 13.4036C6.09721 13.4475 6.1438 13.4864 6.18783 13.5305L6.45697 13.7789C6.5476 13.8617 6.63566 13.9447 6.72628 14.0349C6.81691 14.1252 6.90497 14.2083 6.9956 14.2909L6.99543 14.2913ZM2.25243 14.2401C2.25243 14.2401 3.55206 14.3746 4.18642 14.4652C4.77403 14.5481 6.61228 14.8302 6.61228 14.8302L2.25243 14.2401ZM2.25243 14.2401C2.61748 14.2711 2.98254 14.3099 3.3476 14.3488C3.53396 14.3669 3.71265 14.3875 3.89134 14.4056L4.1656 14.4369C4.25623 14.4497 4.34429 14.4626 4.43491 14.4756L5.5224 14.649L6.06598 14.7396C6.24466 14.7707 6.42335 14.8045 6.60972 14.8355C6.43103 14.8174 6.24466 14.7915 6.06598 14.7656L5.5224 14.6879L4.43491 14.5275C4.34429 14.5145 4.25623 14.4963 4.1656 14.4835L3.89117 14.4519C3.71248 14.4338 3.52611 14.4078 3.34743 14.387C2.98237 14.3432 2.61731 14.2964 2.25226 14.2396L2.25243 14.2401ZM6.48291 15.1689C6.48291 15.1689 5.09522 15.5211 4.62657 15.6558C4.16577 15.7826 2.77023 16.2072 2.77023 16.2072L6.48274 15.169L6.48291 15.1689Z" />
    <path fill="#CFB66C"
      d="M6.4828 15.1689C6.17475 15.2595 5.8684 15.3475 5.55591 15.4305L4.62902 15.679C4.32097 15.7696 4.01462 15.8577 3.70742 15.9483L3.24662 16.0751C3.09387 16.1191 2.93857 16.1579 2.7807 16.2021C2.93328 16.1509 3.08875 16.0985 3.2415 16.0544L3.7023 15.907C4.01035 15.8111 4.3167 15.7205 4.6239 15.6247C4.93707 15.5471 5.2453 15.4641 5.55847 15.389C5.85611 15.3139 6.16946 15.239 6.4828 15.169V15.1689ZM2.96451 17.0616C3.11708 17.0046 4.87768 16.184 5.28677 15.9923C5.49157 15.8964 6.08686 15.6851 6.08686 15.6851L2.96451 17.0616Z" />
    <path fill="#CFB66C"
      d="M2.96447 17.0615C3.09895 17.0103 3.22593 16.9477 3.35529 16.8882L3.73844 16.7095L4.50746 16.3393C4.76346 16.2176 5.01229 16.0833 5.27632 15.9689C5.41097 15.9121 5.54563 15.8655 5.68011 15.8215L5.88491 15.7568C5.95472 15.7387 6.01957 15.7179 6.08971 15.6998C5.83371 15.8215 5.56423 15.9251 5.30789 16.044C5.05189 16.171 4.79009 16.2746 4.52589 16.3884L3.74407 16.7327C3.48159 16.839 3.22559 16.9528 2.96429 17.0615H2.96447ZM3.13513 17.7783C3.13513 17.7783 4.72984 16.8438 5.2787 16.5434C5.56611 16.383 6.49556 15.922 6.49556 15.922L3.13513 17.7783Z" />
    <path fill="#CFB66C"
      d="M3.13531 17.7787C3.40446 17.613 3.67889 17.4447 3.95332 17.2739L4.36292 17.0252C4.5027 16.9424 4.63735 16.8648 4.77986 16.782C4.91963 16.699 5.05429 16.6163 5.19663 16.5386C5.26439 16.4968 5.33538 16.4604 5.40894 16.4299L5.62637 16.3212C5.91377 16.1814 6.20117 16.0389 6.5041 15.9172C6.22967 16.0908 5.94739 16.2384 5.66528 16.391C5.5255 16.4686 5.38299 16.5386 5.24322 16.6163C5.10344 16.6939 4.96879 16.7769 4.82628 16.852C4.6865 16.9347 4.55185 17.0124 4.40951 17.0875L3.98745 17.3179L3.13566 17.7787H3.13531ZM6.48277 16.1268C6.48277 16.1268 5.4912 16.888 5.17017 17.1313C4.84915 17.3747 3.90417 18.0582 3.90417 18.0582L6.48277 16.1268V16.1268Z" />
    <path fill="#E2CC85"
      d="M12.1735 22.2653L11.6661 21.3048L11.9612 20.1035L14.066 19.2906L13.1702 17.4525L13.6129 15.5962L14.444 13.9339L17.0124 13.5301L18.8996 11.7308L22.9748 12.0388L23.7747 16.3961L22.2343 21.8822L21.3567 24.7224L17.7993 24.8571L16.1476 23.7128L14.2136 22.9048L12.1735 22.2653Z" />
    <path fill="#F1D789"
      d="M18.4131 22.2343C18.4131 22.2343 17.921 22.4596 17.0819 22.4077C16.839 22.0815 15.1381 21.9288 15.1381 21.9288C15.1381 21.9288 14.9258 21.8641 14.5504 22.0194C14.1725 22.173 13.8151 22.1541 13.4811 22.2368C13.1472 22.3196 12.8155 21.8847 12.5595 21.7941C12.3035 21.6984 11.9641 21.468 11.9641 21.468L11.2473 21.398L9.80789 20.7896L7.52113 18.5114L6.89973 19.4842L6.70807 20.688L7.39944 22.1146L9.2609 23.8104L12.8906 24.732L15.0421 24.0981L17.7372 22.9589L18.4131 22.2341V22.2343Z" />
    <path fill="#F4ECB4"
      d="M5.51712 14.1826L5.97792 12.7872L6.52696 11.8861L8.29506 11.7384L7.76429 13.2867L6.28615 15.9172L6.89969 18.2654L5.81238 18.809L5.47821 18.2965L5.20907 17.1211L5.19098 15.8007L5.51712 14.1826Z" />
    <path fill="#F3E19D"
      d="M7.50032 22.1385L7.1612 21.6648C7.1612 21.6648 7.07058 21.4395 7.12246 21.2427C7.17366 21.0434 7.16632 21.0304 7.14055 20.9553C7.11478 20.8802 6.89718 20.6213 6.91015 20.3986C6.92295 20.1733 6.89206 20.0982 7.05761 19.9197C7.23101 19.7463 7.17929 19.4459 7.17929 19.4459L7.40457 19.5857L7.45577 19.5081C7.45577 19.5081 7.53855 19.5727 7.53855 19.6738C7.55664 19.534 7.48154 18.8867 7.65238 18.7392C7.82322 18.5917 8.12615 19.4304 8.12615 19.4304L7.93979 18.2136L7.46072 16.9658L6.60892 15.8266L6.55772 14.5708V14.4621C6.55772 14.4621 6.16672 15.0629 6.05801 15.5373C5.98036 15.8635 6.16673 16.2596 6.12798 16.7282C6.09675 17.1943 6.05801 17.158 6.17185 17.3426C6.28568 17.5273 6.56284 17.907 6.45413 18.1815C6.35838 18.4172 6.03207 18.2514 6.03207 18.2514C6.03207 18.2514 5.96739 18.4429 5.87932 18.5129C5.84826 18.3991 5.81464 18.3265 5.75252 18.2569C5.74723 18.3009 5.73443 18.3605 5.73443 18.3605C5.73443 18.3605 5.67742 18.1818 5.62042 17.9565C5.54294 17.6563 5.45999 17.2602 5.3849 17.0479C5.35384 17.1696 5.27618 17.5398 5.27618 17.5398L5.32022 18.1094L5.53253 18.8913L5.73733 19.4033L5.93667 20.0298L6.10989 20.4507L6.24967 20.7717L6.37136 21.4941L6.95896 22.1153L7.27231 22.2553L7.49998 22.1387L7.50032 22.1385Z" />
    <path fill="#F2E8B0"
      d="M5.82522 13.0434C5.82522 13.0434 5.40316 13.7602 5.28165 14.4828C5.16013 15.2054 5.05125 15.9689 5.12805 16.9527C5.2057 17.9444 5.35333 18.5527 5.47245 18.9877C5.67725 19.7101 6.20769 20.7147 6.20769 20.7147L6.22578 20.6757C6.13662 20.5067 6.06546 20.3288 6.01347 20.145C5.94349 19.8705 5.91755 19.5444 5.85287 19.3968C5.79587 19.2493 5.70012 19.1223 5.65353 18.9411C5.6095 18.7677 5.60233 18.4933 5.46716 18.2888C5.41016 18.2059 5.34019 17.9884 5.31954 17.771C5.29359 17.4447 5.33251 17.0796 5.30145 16.7794C5.24444 16.2797 5.2057 15.9406 5.25741 15.679C5.30913 15.4173 5.57861 14.6746 5.74433 14.0843C5.85304 13.7062 5.78819 13.3878 5.98753 13.0589C6.18687 12.7328 6.30872 12.4453 6.35258 12.246C6.40378 12.0648 5.82454 13.0434 5.82454 13.0434H5.82522Z" />
    <path fill="#F5EEC0"
      d="M7.8266 12.756C7.8266 12.756 7.60917 12.8208 7.50558 12.9347C7.40198 13.0434 7.35795 13.134 7.21817 13.3178C7.0784 13.5016 7.07055 13.6518 6.95654 13.8822C6.84271 14.1075 6.59148 14.4466 6.56042 14.5683C6.52936 14.69 6.47765 15.2595 6.41297 15.5288C6.35596 15.7981 6.47765 16.1295 6.47765 16.1295L6.62511 16.0983C6.62511 16.0983 6.62511 16.29 6.77273 16.4195C6.92019 16.5463 6.94613 15.9896 6.94613 15.9896L7.49756 14.1281L8.32853 13.5637L8.41916 13.1081L7.82626 12.756H7.8266Z" />
    <path fill="#E6DB9D"
      d="M8.23043 13.6001C8.23043 13.6001 7.83943 13.6259 7.64794 13.7658C7.57029 13.8226 7.53923 13.8692 7.45646 13.9392C7.30371 14.066 7.14823 14.1826 7.07331 14.3488C6.99037 14.5144 6.89974 14.7656 6.83762 15.2393C6.81168 15.4387 6.81168 15.6225 6.79359 15.7831C6.76765 16.0005 6.7289 16.1739 6.74956 16.2951C6.7755 16.5436 7.03184 16.6731 7.05676 16.9552L7.58753 16.6861L8.08724 14.7157L9.14879 14.0501L8.54804 13.377L8.22975 13.5989L8.23043 13.6001Z" />
    <path fill="#E5CB7A"
      d="M5.43029 26.8679C5.4325 26.8484 5.43472 26.829 5.43694 26.809C5.51442 26.1434 5.52757 25.6389 5.5844 25.323C5.66717 24.8752 5.72417 24.7086 5.7112 24.541C5.69311 24.2719 5.67246 24.0751 5.6984 23.8679C5.73714 23.5935 6.00646 23.2673 5.99878 23.0421C5.99349 22.8634 5.90286 22.747 5.82521 22.6383C5.74755 22.5295 5.68543 22.4389 5.68543 22.4389C5.68543 22.4389 6.21621 22.0739 6.21109 20.6032C6.22192 20.6063 6.23235 20.6106 6.24215 20.6162L6.50361 21.3591L6.6823 21.5765L7.36838 22.8555L8.25123 23.7126L9.55598 24.5902L10.3742 25.4805L10.4569 27.8547L9.3877 29.2424L9.2126 29.5595C7.82145 28.8611 6.54576 27.9533 5.43011 26.8677L5.43029 26.8679Z" />
    <path fill="#D8C173"
      d="M8.69647 29.1391C8.69647 29.1391 8.71456 28.844 8.95793 28.6524C8.99685 28.7171 9.02262 28.7793 9.01494 28.8258C9.05897 28.7483 9.36702 28.2511 10.0635 28.1216C10.76 27.9948 10.9283 27.4874 10.9283 27.4874L12.4064 26.1437L14.097 24.5878L16.1527 23.8653L17.1134 23.6297C17.1134 23.6297 17.1315 23.6996 17.0953 23.8549C17.2738 23.8421 17.6699 23.7515 18.0816 23.6064C18.2473 23.5418 18.4028 23.5158 18.4856 23.6013C18.6072 23.7152 18.6253 23.9845 18.633 24.1449C18.8324 24.1009 19.0628 23.9094 19.2474 23.9275C19.5427 23.9585 19.8041 24.3055 20.1045 24.3055C20.5006 24.3055 20.6791 24.0621 20.9563 23.8705C21.122 23.7566 21.3601 23.6145 21.4947 23.5184C21.8158 23.2827 25.2125 22.2445 25.2125 22.2445L26.4035 22.3222L26.5951 23.6012L26.4927 26.9445C26.4801 26.9566 26.4675 26.9693 26.4547 26.9814L21.0398 29.8095L13.5338 30.9601C11.8525 30.6854 10.23 30.1273 8.73538 29.3096L8.69698 29.1389L8.69647 29.1391Z" />
    <path fill="#F1D789"
      d="M5.88544 27.2932C5.9921 27.0701 6.08802 26.8836 6.10491 26.8168C6.11823 26.9513 6.14263 27.2464 6.19178 27.5601C6.08859 27.4724 5.98647 27.3833 5.88544 27.293V27.2932Z" />
    <path fill="#E0CD81"
      d="M11.3684 30.4396L12.3392 30.1696L12.422 30.1956C12.422 30.1956 12.466 30.2215 12.466 30.3094C12.5877 30.2396 12.6913 30.2524 12.7664 30.206C12.8051 30.2887 12.8439 30.5632 13.0149 30.5968C13.1934 30.6357 13.385 30.5191 13.5793 30.3717C13.7707 30.2189 13.9889 30.0273 14.1539 29.9496C14.2144 30.061 14.2681 30.1759 14.3145 30.2939C14.5319 30.1205 14.9099 29.4163 15.4484 29.4291C15.604 29.0613 15.864 28.7472 16.1963 28.5256C16.696 28.1865 17.0091 28.1605 17.4001 28.1916C17.5554 27.9899 17.7468 27.8187 17.9645 27.6867C18.0292 27.7127 18.2079 27.8214 18.4306 27.7178C18.6559 27.6144 18.9095 27.213 19.2435 27.1613C19.4235 27.1365 19.6065 27.1749 19.7613 27.27C19.7613 27.27 20.7341 26.3042 21.4053 25.9832C21.3794 25.9055 21.3277 25.613 22.1146 24.9656C22.1587 25.0045 22.1276 25.1133 22.1587 25.1192C22.1715 25.1192 22.3635 25.0365 22.6065 24.8499C22.9069 24.6248 23.2666 24.3891 23.4841 24.3244C23.8937 24.2028 24.3282 24.4512 24.3282 24.4512C24.3651 24.4253 24.4063 24.406 24.4499 24.3942C24.5533 24.3762 24.6284 24.3632 24.6854 24.343C24.6803 24.4777 24.7554 24.7081 24.6854 24.9074C24.7664 24.953 24.8523 24.9895 24.9414 25.0162C24.8975 25.1119 24.8016 25.3553 24.6412 25.4718C24.7757 25.5365 24.7938 25.6116 24.9854 25.6766C24.9078 25.7853 24.7806 25.9719 24.724 26.0862C24.667 26.2079 24.4623 26.7128 24.3717 26.9042C24.276 27.0959 24.1466 27.448 24.0843 27.5186C24.022 27.5893 23.7969 27.8888 23.6235 28.0363C23.7771 27.9793 24.4055 27.7878 24.6721 27.7152C24.5927 27.8316 24.1905 28.4285 23.8037 29.0024C21.9521 30.1123 19.8852 30.8147 17.7407 31.063C15.5962 31.3112 13.4235 31.0996 11.3672 30.4422L11.3684 30.4396Z" />
    <path fill="#DFC57C"
      d="M8.29442 13.5301C8.29442 13.5301 8.06931 13.5301 8.02528 13.5612C7.98125 13.5922 8.25056 13.6571 8.33333 13.6881C8.4161 13.7192 8.59479 13.8615 8.64138 13.9755C8.68542 14.0843 10.2595 14.7185 10.2595 14.7185L11.3727 14.6615L11.7566 14.1312L11.0265 13.4917L11.5385 11.9823L10.8602 12.091L9.22916 13.0638L8.41098 13.3772L8.29442 13.5301Z" />
    <path fill="#E5CC7C"
      d="M10.7392 14.0298C10.7553 14.0559 10.778 14.0773 10.8049 14.0918C10.8319 14.1063 10.8622 14.1135 10.8928 14.1126C11.1232 14.1126 11.3353 14.1696 11.4234 14.286C11.571 14.4725 11.9801 15.068 11.9801 15.068L12.9587 15.4201L13.0219 14.2677L11.9526 13.5248L10.7358 13.9727V14.0297H10.7385L10.7392 14.0298Z" />
    <path fill="#D2C281"
      d="M10.5472 14.457C10.5472 14.457 10.7257 14.47 10.951 14.387C11.1763 14.3041 11.5465 14.1256 11.7071 14.1955C11.9322 14.2913 11.8856 14.5917 12.1291 14.8611C12.2766 15.0269 12.5459 15.0217 12.6986 15.2004C12.8514 15.3791 13.3769 15.2962 13.3769 15.2962L13.5762 16.3714L12.7763 17.3967L12.5147 18.6704H11.433L10.4448 18.2784L9.95807 17.1008L10.2014 15.9099L10.5472 14.457Z" />
    <path fill="#E2C270"
      d="M12.6396 14.5087C12.6664 14.517 12.6943 14.5213 12.7224 14.5217C12.6913 14.5476 12.6265 14.6045 12.6524 14.7521C12.6783 14.8997 12.7611 15.0861 12.6913 15.1999C12.747 15.2608 12.7886 15.3333 12.813 15.4122C12.857 15.5392 12.87 15.6556 13.1572 15.6738C13.1158 15.6994 13.0776 15.7298 13.0434 15.7645C13.0434 15.7645 13.2427 15.9379 13.3438 16.0983C13.4472 16.0939 13.7216 16.0085 13.7216 16.0085L13.7786 16.0474L13.9003 15.9962C13.9003 15.9962 13.7865 15.9522 13.8693 15.6752C13.9469 15.4318 14.0169 15.4448 14.0229 15.4267C14.0288 15.4086 14.0799 15.1523 14.0799 15.0487C14.1186 14.9142 14.1497 14.5051 14.1497 14.5051L14.0669 13.6016L13.601 13.3193L13.2221 12.9536L12.8647 13.6267L12.6294 13.8614L12.6113 14.4439L12.6396 14.5087Z" />
    <path fill="#CCB360"
      d="M13.7605 13.7528C13.7605 13.7528 13.8433 13.9883 13.8745 14.1696C13.8855 14.1344 13.8916 14.0978 13.8926 14.0609C13.8926 14.0609 13.9573 14.4183 13.9701 14.5659C13.996 14.5606 14.0213 14.5529 14.0271 14.5787C14.0329 14.6045 14.0919 14.892 14.0783 15.0525C14.1861 14.8746 14.3353 14.7254 14.5131 14.6176C14.6167 14.5527 14.7384 14.4829 14.8654 14.4776C15.0647 14.4725 15.2096 14.6046 15.4479 14.6046C16.0225 14.6046 16.543 14.1826 16.9262 14.0532C17.2083 13.9573 17.4517 13.8875 17.6225 13.732C17.7055 13.6622 17.8531 13.5069 17.9876 13.2763C18.1663 12.9691 18.3526 12.7017 18.5392 12.6681C18.4548 12.6836 18.3689 12.6896 18.2832 12.6862C18.2832 12.6862 18.3402 12.6292 18.4368 12.5515C18.5334 12.4738 18.6491 12.3781 18.8146 12.3781C19.1099 12.3781 19.2573 12.422 19.423 12.422C19.5888 12.4168 19.6845 12.3781 19.6845 12.3781C19.6845 12.3781 19.8581 12.4998 20.2489 12.4998C20.6399 12.5049 20.9014 12.5385 21.106 12.5568C21.3106 12.5751 21.9965 12.4998 22.1933 12.5056C22.3216 12.5105 22.4476 12.5414 22.5637 12.5962L21.9293 10.753L19.6505 8.76134L18.2939 9.72185L16.207 11.8086L14.1877 12.5568L13.7656 13.0306V13.7528H13.7605Z" />
    <path fill="#D5B457"
      d="M18.2913 12.6964C18.2913 12.6964 18.3483 12.6396 18.4439 12.5619C18.5395 12.4843 18.6564 12.3884 18.822 12.3884C19.117 12.3884 19.2647 12.4324 19.4304 12.4324C19.5961 12.4273 19.6918 12.3884 19.6918 12.3884C19.6918 12.3884 19.8656 12.5099 20.2562 12.5099C20.6472 12.515 20.9087 12.5486 21.1133 12.5667C21.318 12.5848 22.0039 12.5099 22.2006 12.5155C22.3289 12.5203 22.4548 12.5512 22.5708 12.6061L22.2834 11.775L21.9496 11.1408L20.9968 10.0973C20.9968 10.0973 19.8533 9.42421 19.8446 9.41909C19.8395 9.41397 19.4485 9.31038 19.4485 9.31038L18.4129 9.9369L17.4732 12.368L17.4551 12.88L18.0633 13.1674C18.2161 12.9114 18.3845 12.7066 18.5424 12.6807C18.3999 12.6962 18.2912 12.6962 18.2912 12.6962L18.2913 12.6964Z" />
    <path fill="#D2B257"
      d="M18.2784 12.87C18.1877 12.8751 18.1128 12.857 18.092 12.7923C18.0143 12.5749 17.9522 12.5438 17.8872 12.5438C17.8222 12.5438 17.7345 12.6836 17.6824 12.6964C17.6303 12.7092 17.5686 12.536 17.5686 12.536L17.5116 12.51C17.5116 12.51 17.1776 12.7275 16.942 12.9838C16.7065 13.2402 16.3207 13.6752 16.1473 13.7527C15.9739 13.8301 15.3782 13.8563 15.1745 13.9003C14.9707 13.9443 14.7447 14.0919 14.7137 14.1256C14.6826 14.1592 14.8045 14.1954 14.8225 14.229C14.8406 14.2601 14.623 14.2471 14.6049 14.2802C14.5921 14.3061 14.6561 14.4536 14.6879 14.5287C14.7434 14.5011 14.8044 14.486 14.8664 14.4847C15.0657 14.4795 15.2108 14.6116 15.4489 14.6116C16.0237 14.6116 16.5441 14.1896 16.9272 14.06C17.2095 13.9643 17.4529 13.8943 17.6237 13.739C17.7065 13.6692 17.8541 13.5137 17.9887 13.2833C18.087 13.1255 18.183 12.9778 18.2789 12.8691L18.2784 12.87Z" />
    <path fill="#D2B159"
      d="M10.0352 25.683C10.0352 25.683 9.98401 25.4913 9.50955 24.9969C9.3749 24.8571 9.29212 24.7409 9.2015 24.6578C8.97622 24.4453 8.84412 24.3884 8.6837 24.2668C8.33161 24.0053 7.94846 24.0053 7.65338 23.6843C7.3583 23.3633 7.0144 22.7499 6.77547 22.123C6.53995 21.4965 6.4751 21.2972 6.4751 21.2791C6.4751 21.261 6.53995 21.1393 6.62272 21.1574C6.7055 21.1755 6.7055 21.3359 6.72632 21.3748C6.76756 21.4383 6.81433 21.4981 6.8661 21.5533C6.98778 21.6933 7.16118 21.8605 7.24924 22.11C7.23115 21.8977 7.15862 21.6622 7.15862 21.6622C7.15862 21.6622 7.6143 21.9496 8.00256 22.2498C8.39356 22.5502 8.55399 22.6538 8.66816 22.8453C8.78234 23.0368 9.05131 23.5418 9.18017 23.6894C9.30902 23.837 11.0746 24.3936 11.0746 24.3936L11.9144 25.0197L12.3314 25.9337L12.005 26.4457L11.3785 26.5803L10.361 26.1246L10.0352 25.6828V25.683Z" />
    <path fill="#CAA13E"
      d="M17.2996 6.99545C17.3595 7.01491 17.4127 7.0508 17.4532 7.09905C17.5749 7.23882 17.6526 7.50284 17.3756 7.78513C17.4843 7.82387 17.5292 7.83633 17.6241 7.82387C17.5283 7.93787 17.3109 8.18124 17.2979 8.39355C17.2849 8.56695 17.3936 8.61883 17.3936 8.61883C17.3936 8.61883 17.2279 8.81032 17.2203 9.13083C17.2985 9.04258 17.3842 8.96116 17.4763 8.88746C17.6679 8.73472 17.9319 8.56132 18.1106 8.4526C18.1082 8.49817 18.1143 8.54378 18.1287 8.58709C18.1287 8.58709 18.4625 8.31266 18.7431 8.43451C18.8699 8.49151 18.8129 8.67003 18.8129 8.67003C18.8129 8.67003 18.9865 8.60535 19.1082 8.72704C19.2299 8.84872 19.4019 9.16258 19.4901 9.28426C19.5289 9.34126 19.6299 9.44998 19.7333 9.61826C19.8746 9.85385 19.9926 10.1027 20.0856 10.3612C20.0907 10.2265 20.1243 10.0169 20.5076 10.1489C20.8908 10.2835 21.3256 10.5658 21.6907 11.1217C22.0558 11.6775 22.1462 12.3051 22.33 12.544C22.5164 12.7744 22.7081 13.1575 22.721 13.3181C22.734 13.4787 22.664 13.9964 23.0472 15.397C23.1559 14.9622 23.3216 13.9964 23.3216 13.9964L23.4122 13.1446L23.5158 10.509L20.7636 8.22254L18.6122 6.66129L17.2115 6.79594L17.2994 6.99528L17.2996 6.99545Z" />
    <path fill="#C89D3A"
      d="M23.213 13.6704C23.2326 13.3221 23.1896 12.9732 23.0861 12.6401C22.9154 12.1093 22.5425 11.1669 22.3693 10.814C22.2993 10.423 22.3512 10.3919 22.4263 10.3479C22.5013 10.3038 22.7836 10.1431 22.9383 9.57901C23.0929 9.01496 23.5726 8.99653 23.5726 8.99653L23.8677 8.7791L24.3157 9.90004L24.7065 10.9124L24.8282 11.6866L24.9188 12.3467L24.7065 13.7423L23.6581 14.6898L23.2129 13.6704H23.213Z" />
    <path fill="#CCA847"
      d="M22.369 24.0519C22.369 24.0519 22.7728 23.5134 22.9127 23.2467C23.0525 22.9717 22.47 19.4901 22.47 19.4901L23.6403 15.6559L23.609 14.408C23.609 14.408 23.666 13.2559 23.8007 12.7561C23.9613 13.0435 24.461 13.3905 24.5697 13.5743C24.6209 13.2221 24.7948 12.4792 24.7691 11.6869C24.8648 11.8344 25.0952 13.318 25.0952 13.318L25.3256 14.3172L25.626 15.3788L25.96 16.4999L26.1593 17.274L26.2731 17.4604L26.3691 17.7865L26.4597 18.1388L26.7211 18.9647L26.8747 19.6429L26.9964 20.8727C27.0229 20.9669 27.042 21.063 27.0534 21.1601C27.0586 21.2948 27.0353 21.3724 27.0353 21.3958C27.0353 21.4192 27.0794 21.6909 27.0613 21.8955C27.0353 22.1003 27.0353 22.2606 26.8747 22.4075C26.7141 22.5545 26.6133 23.4327 26.6133 23.4327L26.3259 23.2412C26.3259 23.2412 26.3829 22.9796 26.2482 22.7415C26.1136 22.5034 25.8521 22.4541 25.7045 22.493C25.557 22.5241 25.2619 22.5705 25.166 22.6534C25.0754 22.7362 24.8529 22.9926 24.6482 23.1091C24.3922 23.2627 23.9751 23.2748 23.7526 23.3266C23.5273 23.3778 23.2788 23.5314 23.0172 23.7097C22.812 23.8425 22.5954 23.9567 22.37 24.051V24.051L22.369 24.0519Z" />
    <path fill="#C39D3C"
      d="M22.369 29.7088C22.369 29.7088 22.386 29.7199 22.419 29.738C24.2583 28.8762 25.9064 27.6547 27.2659 26.1455C27.251 25.6215 27.2318 25.0844 27.2106 24.8854C27.1667 24.4634 27.1978 24.0336 27.1848 23.7851C27.1719 23.5366 27.0321 22.5243 26.9674 22.2628C26.8974 22.0013 26.7626 21.8718 26.7421 21.8718C26.724 21.8771 26.6151 22.3638 26.6151 22.4862C26.6151 22.6086 26.5892 22.9031 26.5892 22.9782C26.5711 22.9729 26.5634 22.927 26.5634 22.9083C26.5375 22.9729 26.5064 23.0869 26.4935 23.0999C26.4805 23.1129 26.5115 22.9912 26.4935 22.9653C26.4754 22.9393 26.4423 22.9523 26.4494 22.8876C26.4525 22.8492 26.4585 22.8112 26.4675 22.7738C26.4675 22.7738 26.3899 22.8876 26.333 23.1776C26.276 23.465 26.276 23.4728 26.2554 23.4986C26.2373 23.5298 26.1337 23.6332 26.1284 23.6722C26.1233 23.742 26.2243 23.8119 26.232 23.8507C26.2371 23.9155 26.1414 24.2157 26.1103 24.3627C26.0792 24.5096 26.0922 24.7975 26.0591 24.9452C26.0332 25.0798 26.0079 25.1575 25.9193 25.2143C25.984 25.2273 26.0461 25.2454 26.0461 25.2454C26.0461 25.2454 26.1368 25.6285 25.9064 25.9548C25.8236 26.0687 25.8029 26.1205 25.7149 26.2241C25.5413 26.4156 25.4067 26.6337 25.3937 26.7756C25.3847 26.7337 25.3787 26.6913 25.3756 26.6486C25.3756 26.6486 25.1064 26.9619 24.9924 27.1406C24.845 27.371 24.6404 27.358 24.5828 27.415C24.5253 27.472 24.5129 27.5755 24.5316 27.6584C24.4804 27.6712 24.3842 27.6895 24.3193 27.8888C24.2883 27.9922 24.2106 28.0936 24.0889 28.1632C23.9672 28.2329 23.8196 28.2539 23.7445 28.272C23.8092 28.2901 23.8352 28.2901 23.8662 28.3107C23.8275 28.3754 23.6488 28.4764 23.4494 28.606C23.2501 28.7276 23.1542 28.9062 23.105 29.0227C23.0538 29.1314 22.9782 29.2014 22.8566 29.2144C22.9078 29.2454 22.9835 29.3178 23.0223 29.3412C22.9653 29.3542 22.8687 29.3542 22.6961 29.5018C22.5149 29.652 22.4528 29.696 22.3698 29.709L22.369 29.7088Z" />
    <path fill="#D2BA6B"
      d="M18.7665 30.9086C18.8656 30.8391 18.973 30.7822 19.0861 30.7391C19.4899 30.5787 19.9171 30.5476 20.0854 30.4959C20.246 30.4447 20.3728 30.3741 20.5721 30.3353C20.5668 30.3807 20.5624 30.4234 20.5576 30.4637C19.9699 30.6484 19.3715 30.797 18.7656 30.9086H18.7665Z" />
    <path fill="#A88F33"
      d="M19.4874 6.01686C19.4874 6.01686 19.288 6.09963 18.9489 6.09963C18.6538 6.09963 18.7366 5.98579 18.2758 5.98579C17.5665 5.98579 15.0888 6.39539 14.6538 6.38959C14.3715 6.38447 15.6064 6.51128 15.6064 6.51128L18.7626 6.55531L19.3968 6.50411L19.6324 6.02454L19.4874 6.01686Z" />
    <path fill="#E3C571"
      d="M11.3036 12.1865C11.3036 12.1865 10.8996 12.4945 10.7288 12.7302C10.558 12.9659 10.4674 13.121 10.2731 13.3127C10.3187 13.3144 10.3643 13.3083 10.4078 13.2946C10.4078 13.2946 10.4078 13.3458 10.3767 13.3593C10.4036 13.3563 10.4307 13.3593 10.4563 13.3682C10.4818 13.377 10.505 13.3915 10.5242 13.4105C10.4672 13.4415 10.3119 13.597 10.4336 13.7808C10.5242 13.9206 10.7158 13.9334 10.7158 13.9334C10.7158 13.9334 10.6718 14.0604 10.8556 14.0474C11.2517 14.0293 11.6944 13.8557 11.8989 13.8998C12.1037 13.951 12.2201 13.9697 12.365 14.221C12.5186 14.4695 12.6524 14.5084 12.6524 14.5084C12.6524 14.5084 12.743 14.2778 12.7224 13.9336C12.7967 13.748 12.8379 13.5509 12.8441 13.3511L12.7094 12.3595L12.1218 11.6164L11.3606 12.0385L11.3036 12.1859V12.1865Z" />
    <path fill="#D8B65B"
      d="M12.0259 12.0388C12.0259 12.0388 12.0829 12.1735 12.3211 12.1863C12.2952 12.2433 12.2952 12.2511 12.303 12.295C12.3082 12.339 12.3158 12.4037 12.3158 12.4037C12.3421 12.391 12.3658 12.3737 12.3858 12.3525C12.3988 12.4095 12.3728 12.5 12.3858 12.5648C12.3938 12.6043 12.4068 12.6425 12.4246 12.6787C12.4283 12.6698 12.4327 12.6612 12.4375 12.6529C12.4426 12.6399 12.4887 12.7927 12.6162 12.9089C12.6161 12.891 12.6205 12.8734 12.629 12.8577C12.631 12.8901 12.6417 12.9215 12.6601 12.9483C12.6505 12.9438 12.6418 12.9376 12.6343 12.9302C12.6343 12.9302 12.6471 13.3398 12.7171 13.5516C12.7288 13.5379 12.7392 13.5232 12.7481 13.5076C12.7481 13.4948 12.743 13.6216 12.73 13.7124C12.712 13.803 12.7249 13.9298 12.7249 13.9298C12.7716 13.8931 12.8229 13.8626 12.8775 13.8392C12.9552 13.808 13.0823 13.7122 13.1598 13.4999C13.2047 13.3797 13.2394 13.2558 13.2634 13.1297C13.2884 13.1779 13.3057 13.2298 13.3146 13.2833C13.3199 13.348 13.4416 13.3144 13.4416 13.3144L13.4675 13.0321L13.6211 12.3926L13.7609 11.9965L14.434 10.9481L15.6502 10.0115L16.7117 10.2548L17.6074 9.03799L16.0644 8.1111L14.6041 8.26385L13.2789 10.0994L12.2175 11.7642L12.0259 12.0387V12.0388Z" />
    <path fill="#D3AE4D"
      d="M19.6738 9.38257C19.6738 9.38257 19.5832 9.40066 19.3217 9.53617C19.0602 9.67168 18.879 9.71469 18.7779 9.91402C18.6769 10.1134 18.6692 10.2714 18.6692 10.2714C18.6692 10.2714 18.8479 10.1937 18.9515 10.1678C19.0602 10.142 19.1819 10.1497 19.1689 10.1937C19.1565 10.2239 19.1392 10.2519 19.1177 10.2765C19.1177 10.2765 19.3225 10.2714 19.3171 10.3724C19.3116 10.4735 19.2783 10.5847 19.2396 10.6339C19.2007 10.6851 19.0403 10.7609 19.0222 10.8204C18.9781 10.9421 19.0403 10.9472 19.0169 11.0455C18.9988 11.1415 18.9135 11.3278 18.6337 11.654C18.3463 11.9803 18.2241 12.2107 18.2241 12.2107C18.2241 12.2107 18.0844 11.9492 18.0118 11.7239C17.9606 11.7497 17.6857 11.9025 17.6857 11.9025L17.0488 9.68379L17.0616 9.53617C17.0616 9.53617 17.1186 9.46637 17.1315 9.33683C17.0358 9.30577 17.0228 9.27983 16.8958 9.15831C16.7689 9.0368 16.6654 8.889 16.4533 8.78796C16.4222 8.73096 16.3833 8.65348 16.228 8.62225C16.0727 8.59102 15.9795 8.56542 15.9795 8.56542C15.9795 8.56542 16.0623 8.53418 16.1012 8.4695C16.0053 8.48247 15.9278 8.51353 15.7181 8.50841C15.5058 8.50312 15.4824 8.49544 15.366 8.51353C15.2496 8.53162 15.11 8.58351 15.0579 8.40482C15.0009 8.36079 14.8792 8.3997 14.7757 8.55227C14.6721 8.70485 14.6359 8.82671 14.4365 8.88627C14.4225 8.97414 14.3918 9.0585 14.3459 9.13476C14.2889 9.23067 14.1983 9.32642 14.0766 9.46875C13.8849 9.69403 13.916 10.0642 13.6105 10.3465C13.3025 10.6286 13.6617 9.5645 13.6617 9.5645L14.1536 8.3869L15.5542 7.0173L17.729 6.86984L17.9413 7.99624L19.0029 8.3613L19.6734 9.38393L19.6738 9.38257Z" />
    <path fill="#CAA13E"
      d="M20.0182 9.63107L19.1043 8.31335L18.4648 7.82132C18.4648 7.82132 18.0091 6.98266 17.9781 6.95672C17.9521 6.93863 17.5224 6.89204 17.2479 6.87395L17.2991 7.00075C17.359 7.02021 17.4123 7.0561 17.4527 7.10435C17.5744 7.24412 17.6521 7.50814 17.3751 7.79043C17.4838 7.82917 17.5287 7.84163 17.6236 7.82917C17.5278 7.94317 17.3104 8.18654 17.2974 8.39885C17.2845 8.57225 17.3932 8.62396 17.3932 8.62396C17.3932 8.62396 17.2275 8.81562 17.2198 9.13596C17.298 9.04771 17.3837 8.96629 17.4758 8.89259C17.6674 8.73899 17.9315 8.56628 18.1102 8.45756C18.1077 8.50318 18.1139 8.54886 18.1282 8.59222C18.1282 8.59222 18.4621 8.31779 18.7426 8.43947C18.8694 8.49648 18.8124 8.67516 18.8124 8.67516C18.8124 8.67516 18.986 8.61048 19.1077 8.73217C19.2294 8.85385 19.4028 9.16702 19.4908 9.28888C19.5296 9.34588 19.6306 9.4546 19.734 9.6227C19.8754 9.85834 19.9933 10.1072 20.0863 10.3658C20.0914 10.2622 20.1122 10.1173 20.2911 10.1173L20.0192 9.63055L20.0182 9.63107Z" />
    <path fill="#F4EFC8"
      d="M6.3172 13.3748C6.3172 13.3748 6.25252 13.2142 6.3172 12.901C6.38188 12.5879 6.48292 12.4402 6.51654 11.9794C6.55016 11.5186 6.85053 10.9438 6.85053 10.9438L7.68151 10.566L8.26929 10.7264L8.44269 11.5135L7.6996 11.9231C7.6996 11.9231 7.66086 12.0965 7.45111 12.2363C7.24136 12.3761 6.9514 12.4848 6.8816 12.6273C6.83987 12.7146 6.80941 12.8068 6.79097 12.9017C6.79097 12.9017 6.57866 12.8577 6.45186 12.9975C6.3172 13.14 6.32232 13.2668 6.3172 13.3755V13.3748Z" />
    <path fill="#EBCC73"
      d="M7.9949 13.1651C7.9949 13.1651 7.92493 13.2091 7.87322 13.3187C7.82202 13.2359 7.69965 12.7439 7.69453 12.3012C7.68941 11.8584 7.66296 11.7487 7.76536 11.5961C7.86776 11.4436 8.26934 11.2828 8.21233 11.008C8.15533 10.7465 7.91708 10.6378 7.62456 10.7129C7.41976 10.7641 7.26735 11.1997 7.05504 11.4171C6.89445 11.5828 6.70296 11.5569 6.65125 11.6475C6.58127 11.7692 6.64595 11.8909 6.6253 11.9685C6.62001 11.9945 6.55533 12.1342 6.43877 12.3025C6.20325 12.6416 5.80457 13.1207 5.75269 13.5504C5.77078 13.3071 5.75798 13.3019 5.82266 13.0326L5.78375 12.9679L6.03975 12.1291L6.20546 11.4379L6.57581 10.2805L7.2281 9.0974L7.86247 8.38794L8.52261 8.43197L8.60026 9.42354L8.97829 11.2852L9.77308 12.2638L8.49922 13.121L7.99439 13.1651H7.9949Z" />
    <path fill="#E6BD62"
      d="M9.67766 12.2175C9.67766 12.2175 9.39026 12.4092 9.32557 12.479C9.36431 12.4843 9.429 12.5102 9.40306 12.5489C9.37199 12.5877 9.18563 12.7223 9.08203 12.8493C8.97332 12.9761 8.86972 13.1367 8.83354 13.2144C8.7948 13.2842 8.49955 13.4888 8.39868 13.5146C8.61099 13.5146 9.03817 13.2531 9.1986 13.2531C9.19348 13.3308 9.24263 13.4188 9.33325 13.4265C9.42388 13.4342 9.68534 13.4835 10.0374 13.2661C10.3895 13.0538 10.2731 12.8957 10.4206 12.7923C10.7029 12.6058 10.8167 12.4401 10.972 12.3366C11.1273 12.2332 11.2077 12.2097 11.2077 12.2097C11.2077 12.2097 11.2128 12.132 11.2589 12.1399C11.2715 12.1413 11.2835 12.1462 11.2935 12.1539C11.3036 12.1617 11.3113 12.1721 11.3159 12.1839C11.3159 12.1839 11.5852 11.9922 11.9303 11.9405C11.9222 11.9369 11.9158 11.9305 11.9122 11.9224C11.9122 11.9224 11.938 11.9095 11.9433 11.8965C11.9433 11.8965 11.9613 11.8705 11.9743 11.8835C11.9873 11.8965 12.0054 11.9922 12.0313 12.0311C12.0883 12.0052 12.197 11.7618 12.197 11.7618L12.4587 11.0136V10.3301L12.2539 10.369L10.7179 11.0213L9.78569 11.9871L9.67698 12.2175H9.67766Z" />
    <path fill="#B6933F"
      d="M14.0996 8.86477C14.1827 8.84461 14.2624 8.81229 14.336 8.76885C14.3049 8.8518 14.3049 8.94242 14.1703 9.1392C14.0356 9.33598 14.0305 9.36448 13.9218 9.56894C13.8131 9.78125 13.8001 10.0867 13.6965 10.2212C13.7429 10.1987 13.7927 10.1838 13.844 10.1774C13.844 10.1774 13.7405 10.268 13.6965 10.3637C13.6525 10.4595 13.5748 10.6588 13.3833 10.7807C13.1918 10.9025 12.9483 10.98 12.6868 11.2674C12.4252 11.5495 12.1561 11.9069 12.0212 12.0354C12.0912 11.9137 12.187 11.6704 12.2129 11.5099C12.2388 11.3495 12.2076 11.1577 12.2516 10.9455C12.2957 10.7334 12.2957 10.5805 12.5076 10.2101C12.7196 9.83979 13.0824 8.55313 13.0824 8.55313L13.8643 8.30464L14.1 8.86392L14.0996 8.86477Z" />
    <path fill="#C49937"
      d="M13.5353 8.391C13.5353 8.391 13.2997 8.73012 13.2351 9.03049C13.1704 9.33086 13.2298 9.30492 13.191 9.45255C13.1679 9.54256 13.1679 9.63697 13.191 9.72698C13.2726 9.59557 13.3843 9.48547 13.5168 9.40579C13.7395 9.2713 13.9208 9.17539 14.0288 9.06155C14.1375 8.93987 14.2282 8.74053 14.4637 8.58778C14.3679 8.57481 14.2333 8.53078 14.2077 8.53658C14.3036 8.42787 14.5908 8.26215 14.8808 8.06281C15.1682 7.85801 15.1501 7.77541 15.6162 7.57095C15.4634 7.59689 15.3909 7.55798 15.2639 7.57095C15.3151 7.46223 15.4943 7.41035 15.6735 7.23183C15.8527 7.05332 15.5597 6.78912 15.5597 6.78912L14.1944 7.61498L13.5342 8.39168L13.5353 8.391Z" />
    <path fill="#DFC068"
      d="M9.83038 7.77471L9.86144 7.52622L10.2524 6.8997L10.6615 5.79942V4.29516L10.6305 3.42527L10.6952 2.85559L10.7443 2.67451L10.7962 2.60454L11.13 2.77794L11.591 3.40445L11.635 4.61362L11.187 6.52168L9.90804 7.91722L9.83038 7.77471Z" />
    <path fill="#A88F33"
      d="M10.8479 2.53457C10.8479 2.53457 10.6431 2.53986 10.5994 3.39166C10.5557 4.24346 10.5346 4.69129 10.5035 5.11334C10.4724 5.5354 10.4001 5.79158 10.3637 6.04024C10.3274 6.2889 10.3067 6.62784 10.1903 6.83503C10.1391 6.93078 10.0297 7.23115 9.77338 7.45643C9.48597 7.70492 9.05658 7.87849 8.99155 7.89146C8.87755 7.91723 8.30018 7.97423 8.06466 8.10377C7.98189 8.1478 7.83938 8.19951 7.68152 8.34714C7.36817 8.62925 6.9514 9.13408 6.65103 9.74251C6.19023 10.6513 5.72943 13.2169 5.72943 13.2169L5.83303 13.0436C5.83303 13.0436 5.846 12.8131 6.0764 12.4092C6.30168 12.0054 6.23699 11.5523 6.55017 10.7781C6.67185 10.483 6.8246 10.0999 7.01097 9.77357C7.30622 9.2428 7.66343 8.78712 8.02336 8.53863C8.61097 8.13483 9.25831 8.04677 9.25831 8.04677L9.9548 7.58597C9.9548 7.58597 10.0765 7.35045 10.2371 7.08113C10.4622 6.70328 10.7491 6.28122 10.8117 5.66767C10.9076 4.75887 10.6771 4.16341 10.69 3.62496C10.703 3.08651 10.7081 2.69039 10.817 2.59447C10.9259 2.49856 10.8481 2.53491 10.8481 2.53491L10.8479 2.53457Z" />
    <path fill="#C99E3D"
      d="M10.8479 6.59934C10.8479 6.59934 11.1551 5.84329 11.2958 5.17274C11.3217 5.03808 11.3734 4.9036 11.3864 4.79488C11.4511 4.16051 11.4692 3.89905 11.3864 3.55209C11.3217 3.29609 11.0732 3.06535 10.9437 2.88649C10.8169 2.69995 10.7573 2.63049 10.7833 2.59123C10.8092 2.55198 10.9101 2.48781 11.0084 2.49549C11.1129 2.49853 11.2156 2.52279 11.3105 2.5668C11.4053 2.61081 11.4902 2.67365 11.56 2.75149C11.7593 2.98189 11.9172 3.76388 11.9172 3.76388L12.0832 4.79573L12.5053 6.09536L10.8483 6.60036L10.8479 6.59934Z" />
    <path fill="#B58634"
      d="M13.7346 5.8124C13.7346 5.8124 13.6776 5.83817 13.5742 5.8124C13.5786 5.85466 13.5712 5.89733 13.553 5.93569C13.5347 5.97405 13.5062 6.00663 13.4706 6.02983C13.3619 5.9858 12.3442 6.07386 12.3442 6.07386C12.3442 6.07386 11.8704 5.99092 11.7228 5.3644C11.6193 4.94746 11.8004 4.37283 11.7409 3.9948C11.6502 3.43808 11.5234 3.3292 11.5105 3.15597C11.4975 2.98275 11.4845 2.93854 11.4845 2.82983C11.4275 2.81686 11.3939 2.79877 11.3371 2.79877C11.3241 2.74757 11.3499 2.70285 11.293 2.61223C11.3241 2.6252 11.5364 2.65114 11.7849 2.88666C11.9897 3.07832 11.9897 3.14812 12.0206 3.18703C12.0593 3.22578 12.3727 3.49423 12.5073 3.76184C12.642 4.02944 12.9034 4.88278 12.963 5.02255C12.9811 5.07956 13.02 5.13656 13.1166 5.26592C13.2668 5.45246 13.4868 5.76086 13.7353 5.81206L13.7346 5.8124Z" />
    <path fill="#A88F33"
      d="M12.0571 3.2C12.2139 3.45335 12.3548 3.71623 12.479 3.98711C12.6317 4.33135 12.7223 4.61363 12.914 4.84403C12.8104 4.54383 12.6266 3.95349 12.5179 3.74374C12.3962 3.52187 12.1477 3.28294 12.0571 3.20017V3.2Z" />
    <path fill="#E6C367"
      d="M10.2965 7.45642C10.2965 7.45642 10.035 7.52111 9.54827 7.77745C9.38768 7.86022 9.2351 7.93002 9.08747 7.99488C8.70399 8.16827 8.29268 8.32853 7.96637 8.41694C7.99231 8.448 8.00511 8.4608 8.00511 8.4608C8.00511 8.4608 8.00511 8.58777 8.07508 8.66014C8.03634 8.69905 7.51837 9.05113 7.67128 10.2291C7.77471 10.1903 7.89639 10.1385 7.91448 10.1385C7.94572 10.1437 7.9534 10.2291 7.99214 10.2291C8.03088 10.2291 8.15785 10.1779 8.29251 10.0038C8.28739 10.0738 8.20974 10.7779 8.6265 11.2517C8.70416 11.1611 8.90094 10.8607 8.90094 10.8607L8.90606 10.765C8.90606 10.765 8.92415 10.431 9.03303 10.1255C9.14192 9.81999 9.35406 9.59471 9.35406 9.59471L10.4619 8.0128L10.2961 7.45625L10.2965 7.45642Z" />
    <path fill="#DCBA5A"
      d="M9.26091 9.77919C9.21019 9.81503 9.15431 9.84294 9.09519 9.86197C9.0771 9.79728 9.05116 9.57456 9.2039 9.35713C9.38259 9.0955 9.77342 8.75639 9.88213 8.48673C9.95211 8.31317 9.92104 7.87831 10.5424 7.32159C11.1638 6.76488 11.407 6.57339 11.407 6.57339L12.4116 6.06856L13.6465 6.5553L13.033 8.95999L12.5566 10.0864L10.6622 9.72919L9.26074 9.77919H9.26091Z" />
    <path fill="#E9CE77"
      d="M9.98401 9.12623L10.2197 8.83115V8.6214C10.2197 8.6214 10.4812 8.55143 10.7633 8.26403C11.0454 7.97662 11.4364 7.4252 11.7808 7.45882C12.1252 7.49773 12.1588 8.20702 12.1718 8.40653C12.1848 8.60604 12.2288 9.05882 12.2986 9.30236C12.3762 9.54573 11.4598 10.4673 11.4598 10.4673L10.8373 10.9411L9.98401 9.12623Z" />
    <path fill="#CDAE50"
      d="M10.7133 11.5831C10.7133 11.5831 10.9049 11.2828 10.7645 11.2181C10.8472 11.0317 11 10.8349 11 10.8349C11 10.8349 11.1087 10.5658 11.4608 10.2344C11.8129 9.90294 12.0305 9.68278 12.0875 9.46023C12.1226 9.31519 12.1417 9.16673 12.1445 9.01752C12.1825 9.04861 12.2232 9.07631 12.2661 9.10029C12.3231 9.12623 12.5923 9.34878 12.5535 9.79678C12.5148 10.2448 12.3487 10.4311 12.3487 10.4311C12.3487 10.4311 12.1883 10.5916 12.0745 10.6745C11.9526 10.7573 11.9088 10.853 11.7041 10.8609C11.7252 10.8442 11.7488 10.831 11.7741 10.822C11.7741 10.822 11.5618 10.7962 11.4478 10.8996C11.3338 11.0031 11.0915 11.3217 10.9698 11.4176C10.8481 11.4953 10.7138 11.5833 10.7138 11.5833L10.7133 11.5831Z" />
    <path fill="#D2A83E"
      d="M19.3217 6.54746C19.0158 6.43598 18.6943 6.37309 18.369 6.36109C17.8253 6.343 17.0305 6.37406 16.2512 6.37918C15.4124 6.3843 14.6512 6.09178 13.5949 6.04007C13.4215 5.93647 12.9805 5.48335 11.6039 6.44386C11.6867 6.43874 12.6034 6.23155 12.9217 6.6304C13.2427 7.02652 13.1521 7.69963 13.1082 7.86005C13.0253 8.21743 12.7559 8.73779 12.6474 9.10285C12.5389 9.46791 12.5645 9.65973 12.4868 9.91573C12.4091 10.1717 12.2383 10.2989 12.3392 10.594C12.4738 10.5112 12.544 10.5112 12.7689 10.0064C12.9939 9.50153 12.9476 9.14159 13.3205 8.71441C13.6856 8.28467 14.2933 7.6969 14.5244 7.54927C14.7555 7.40164 16.5903 6.44898 18.5115 7.35778C18.9749 7.30863 19.3218 6.54729 19.3218 6.54729L19.3217 6.54746Z" />
    <path fill="#C29637"
      d="M12.378 6.1952C12.3761 6.17574 12.3718 6.1566 12.3652 6.1382C12.3472 6.10033 12.3236 6.06541 12.2952 6.0346C12.2952 6.0346 11.8395 5.95183 11.6091 5.9776C11.2051 6.02163 10.8401 6.52134 10.6692 6.77769C10.4984 7.03403 10.2861 7.42998 10.0557 7.6346C10.0582 7.61467 10.0536 7.59448 10.0427 7.5776C10.0427 7.5776 10.0557 7.59569 10.0299 7.62163C10.0042 7.64758 10.004 7.66038 10.017 7.67283L10.0559 7.71158C10.0687 7.71158 10.426 7.55098 10.9128 7.09717C11.4306 6.6234 11.8267 6.38037 12.0339 6.29709C12.1444 6.25013 12.2599 6.21595 12.3781 6.1952V6.1952H12.378Z" />
    <path fill="#AC8132"
      d="M21.2169 4.24858C21.2169 4.24858 21.134 4.352 21.0304 4.46601C20.8 4.70938 20.4996 4.98364 20.2433 5.26592C20.0001 5.53524 19.7256 5.74499 19.4174 6.09707C19.1092 6.44916 18.7518 6.83998 18.6614 6.95399C18.5786 7.06799 18.5139 7.25436 18.5139 7.35011C18.4699 7.31905 18.4182 7.28542 18.4182 7.28542C18.4399 7.32607 18.466 7.36429 18.4958 7.39943C18.5605 7.49005 18.6614 7.60423 18.7132 7.67386C18.7769 7.7625 18.8226 7.86275 18.8477 7.96894C18.8788 7.97406 19.0781 8.01298 19.3268 7.60389C19.5754 7.1948 19.9014 6.74697 19.9014 6.74697L20.4192 5.97795L20.7455 5.32566L21.1551 4.59555L21.2174 4.24858H21.2169Z" />
    <path fill="#A88F33"
      d="M21.7477 3.72565C21.7477 3.72565 21.4344 3.98165 21.3127 4.13525C21.191 4.28885 20.9031 4.69196 20.9031 4.69196L21.0067 4.67899L21.5323 4.21307L21.7371 3.84801L21.7475 3.72633L21.7477 3.72565Z" />
    <path fill="#BE9C44"
      d="M21.7658 3.66079L21.7528 3.69185C21.7528 3.69185 21.7916 3.70482 21.7839 3.75671C21.7844 3.82769 21.7801 3.89863 21.7709 3.96902C21.7581 4.05964 21.7322 4.12944 21.727 4.18645C21.727 4.30813 21.7451 4.44791 21.5734 4.79487C21.5222 4.89062 21.4907 4.97339 21.4647 5.03039C21.4 5.17017 21.3871 5.19099 21.3301 5.25567C21.4207 5.20447 21.747 4.99967 21.9126 5.03039C21.7987 5.09508 21.6252 5.22205 21.5164 5.38777C21.5424 5.39289 21.6511 5.41371 21.8236 5.38777C22.111 5.34374 22.4321 5.24014 22.7142 5.26079C23.0224 5.27889 22.9007 4.89062 22.9007 4.89062L22.545 4.10879L21.8719 3.63519L21.7658 3.66096V3.66079Z" />
    <path fill="#A17C34"
      d="M23.5211 9.51723C23.5211 9.51723 23.2207 9.21686 23.0991 8.18603C22.9774 7.15042 23.0033 5.62602 23.0033 5.62602L22.7599 5.03057C22.7599 5.03057 22.7087 4.63445 22.5813 4.48699C22.4538 4.33954 22.2034 4.09087 22.0894 3.96919C21.9754 3.8475 21.846 3.68179 21.7684 3.65584C21.8071 3.59116 21.9807 3.2261 22.6459 3.22098C23.3112 3.21586 23.5163 3.58604 23.5858 3.7207C23.6553 3.85535 23.9689 4.4375 24.0853 5.54683C24.1941 6.6548 24.1993 6.73775 24.1813 7.1209C24.1683 7.33321 24.0983 7.82507 23.9765 8.35055C23.8652 8.79599 23.7435 9.29314 23.5208 9.51825L23.5211 9.51723Z" />
    <path fill="#8C6228"
      d="M22.5792 10.4001C22.6793 10.4073 22.7793 10.3847 22.8666 10.3352C22.9624 10.3301 23.3093 10.3741 23.5759 10.035C23.594 10.1125 23.6408 10.3224 23.5189 10.5088C23.5838 10.444 23.6795 10.4182 23.6925 10.4001C23.6976 10.4958 23.7882 10.7909 23.4051 11.5081C23.5085 11.3942 23.6302 11.3993 23.7389 11.3864C23.7442 11.521 23.8166 11.974 23.6251 12.2175C23.4983 12.3832 23.2911 12.3314 23.2911 12.3314C23.2941 12.2952 23.2941 12.2588 23.2911 12.2226C23.286 12.1527 23.26 12.0829 23.2783 12.0363C23.1782 11.9905 23.087 11.9274 23.009 11.8497C22.7837 11.6374 22.4912 11.2751 22.4705 11.0058C22.4446 10.7054 22.7139 10.6407 22.7139 10.6407C22.6913 10.6205 22.6721 10.5969 22.6569 10.5708C22.6439 10.5269 22.6309 10.4569 22.5792 10.4001V10.4001Z" />
    <path fill="#D4B968"
      d="M16.1792 9.84848C16.1792 9.84848 16.218 9.74506 16.1792 9.66997C16.1403 9.59231 15.9048 9.56637 15.7882 9.47831C15.6665 9.38769 15.5189 9.32471 15.3972 9.36447C15.4153 9.32044 15.4879 9.22453 15.4283 9.20388C15.3713 9.18579 15.1592 9.28153 15.1021 9.32556C15.0451 9.36959 14.9156 9.42131 14.8898 9.45254C14.8641 9.48377 14.8199 9.54316 14.7939 9.51722C14.768 9.49913 14.7552 9.45254 14.7112 9.47831C14.6671 9.50408 14.4552 9.67765 14.4161 9.77868C14.377 9.87972 14.2891 10.105 14.0251 10.3612C13.7611 10.6173 13.647 10.7832 13.7247 10.879C13.8024 10.9747 13.8387 10.9049 13.8517 10.9877C13.8617 11.0689 13.8573 11.1513 13.8387 11.2311C13.8076 11.3657 13.7559 11.4925 13.8257 11.5185C14.0044 11.5755 14.178 11.4673 14.2167 11.5004C14.2944 11.5702 14.1727 11.8214 14.3565 11.8705C14.543 11.9217 14.7269 11.8265 14.7269 11.8265L15.4051 11.4615L16.0575 11.1172L16.3914 10.4569L16.2123 9.90549L16.1782 9.84848H16.1792Z" />
    <path fill="#CCA849"
      d="M15.5392 11.4253C15.5392 11.4253 15.4252 11.2519 15.5651 11.099C15.7051 10.946 15.9043 10.8815 15.9819 10.7858C15.9671 10.7676 15.9473 10.7541 15.9249 10.747C15.9765 10.6548 16.0551 10.5806 16.1502 10.5346C16.1114 10.4958 16.0596 10.4648 16.0027 10.4648C15.8758 10.4648 15.7979 10.5424 15.6815 10.5424C15.5677 10.5424 15.5547 10.4854 15.5547 10.4854C15.5547 10.4854 15.7464 10.4673 15.7281 10.3818C15.71 10.2912 15.6769 10.2912 15.6769 10.2912C15.6769 10.2912 16.0471 10.1376 16.1118 10.0557C16.1765 9.97376 16.1688 9.87699 16.1818 9.83825C16.2256 9.83825 16.482 9.70359 16.5856 9.76059C16.6892 9.81759 16.6166 9.9729 16.6166 9.9729C16.6166 9.9729 16.9301 9.73721 17.0899 9.50613C17.2297 9.5191 17.2947 9.41039 17.3971 9.41039C17.5241 9.41039 17.7234 9.58378 17.7621 9.95396C17.7881 10.1663 17.8268 10.288 17.7881 10.6634C17.77 10.8757 17.7751 11.329 17.8393 11.554C17.8831 11.7326 17.9867 11.7146 17.9867 11.7146C17.9708 11.769 17.9393 11.8176 17.8961 11.8543C17.8261 11.919 17.8185 12.09 17.8261 12.1547C17.8365 12.202 17.8494 12.2487 17.865 12.2945C17.865 12.2945 17.7823 12.3902 17.7615 12.4551C17.7434 12.5198 17.658 12.5638 17.5957 12.5638C17.5334 12.5638 17.5647 12.5585 17.4819 12.5638C17.3991 12.5691 17.3732 12.5819 17.3213 12.5638C17.2694 12.5457 17.2307 12.5249 17.2515 12.359C17.2696 12.1933 16.612 11.8076 16.612 11.8076L15.5368 11.4244L15.5392 11.4253Z" />
    <path fill="#585136"
      d="M14.3043 13.0615C14.3043 13.0615 14.5398 13.3748 15.5081 13.3748C15.969 13.3748 16.1295 13.3308 16.225 13.3048C16.3285 13.2789 16.7168 13.1263 17.1078 12.6653C17.4599 12.2486 17.3822 12.0777 17.3822 12.0777L17.1774 12.0467L16.5118 12.1373L14.5423 12.9761L14.3034 13.0615H14.3043Z" />
    <path fill="#252211"
      d="M15.0265 13.1391C15.0265 13.1391 14.1877 13.3256 14.1877 12.7949C14.1877 12.2771 14.7055 11.7333 14.835 11.6376C14.9697 11.5417 15.2907 11.4328 15.2907 11.4328H16.0648L16.2123 11.8238L16.1476 12.6677L15.0265 13.1389V13.1391Z" />
    <path fill="#C3B378"
      d="M15.8007 11.591C15.8007 11.591 15.6403 11.4434 15.2752 11.6422C14.9101 11.841 14.6149 12.2566 14.5968 12.634C14.5787 12.9678 14.8712 13.2164 15.3269 13.2294C15.666 13.2422 15.8707 13.2035 15.9743 13.1782C15.9483 13.1471 15.8137 12.9789 15.8137 12.9789L15.8009 11.5912L15.8007 11.591Z" />
    <path fill="#252211"
      d="M15.4305 11.9948C15.4305 11.9948 15.3269 12.1554 15.3269 12.4117C15.3269 12.6732 15.4745 13.09 16.0182 13.121C16.435 13.147 16.7145 12.5204 17.0175 12.2771C17.2479 12.0907 17.3876 12.0854 17.3876 12.0854C17.3876 12.0854 17.1521 11.8294 16.5231 11.4978C15.9017 11.1638 15.2052 11.1198 14.8271 11.6325C15.0058 11.6195 15.5832 11.4719 15.5832 11.4719L15.8655 11.5625L15.4305 11.995V11.9948Z" />
    <path fill="#AC924C"
      d="M9.11359 12.1344C9.11359 12.1344 9.31839 12.288 9.5563 12.282C9.79182 12.2767 10.0947 12.0335 10.2345 11.8781C10.3173 11.7874 10.3881 11.6917 10.4649 11.6166C10.5298 11.5519 10.5736 11.5208 10.6047 11.4768C10.6487 11.4256 10.6953 11.3294 10.7187 11.2981C10.6617 11.3422 10.5789 11.42 10.4934 11.4717C10.4107 11.5229 10.232 11.6192 10.1594 11.6451C10.0896 11.671 9.36464 12.0547 9.36464 12.0547L9.11359 12.1344Z" />
    <path fill="#9F8E57"
      d="M9.42657 10.2214C9.42657 10.2214 9.54041 10.1437 9.76057 10.0944C9.97288 10.0432 10.4001 10.0038 10.4001 10.0038L10.7521 10.1574L10.8919 10.6882L10.6359 11.2398L10.3098 11.4446L9.93943 10.8491L9.42743 10.2224L9.42657 10.2214Z" />
    <path fill="#EAC970"
      d="M8.96579 10.6952L8.84393 10.7861C8.84393 10.7861 8.87516 10.7291 8.90094 10.5557C8.92671 10.3823 9.06153 9.96027 9.25831 9.7169C9.45509 9.47353 9.44997 9.4865 9.44997 9.4865C9.43186 9.48319 9.41326 9.48378 9.3954 9.48822C9.37753 9.49266 9.36082 9.50086 9.34638 9.51227C9.37232 9.45493 9.53804 9.25013 9.70375 9.14773C9.86947 9.04533 9.93415 9.01307 10.1076 9.09653C10.2809 9.17998 10.325 9.22333 10.452 9.21821C10.5789 9.21309 10.6875 9.07844 10.6875 9.07844C10.6875 9.07844 10.7134 9.16121 10.6177 9.35287C10.5219 9.54453 10.1439 9.93536 10.1439 9.93536L9.35679 10.4738L8.96579 10.6957V10.6952Z" />
    <path fill="#585136"
      d="M8.86477 10.8558C8.86477 10.8558 8.75605 10.9205 8.69905 11.163C8.64205 11.4115 8.75025 11.7144 8.81289 11.8101C8.87552 11.9059 9.01769 12.1675 9.3126 12.1805C9.3856 12.1801 9.45779 12.1651 9.52492 12.1365C9.62787 12.0892 9.72444 12.0292 9.81232 11.9578C9.9393 11.862 10.0427 11.7792 10.0298 11.7714C9.99869 11.7584 9.24792 11.137 9.24792 11.137L8.96563 10.822L8.8646 10.8561L8.86477 10.8558Z" />
    <path fill="#84754B"
      d="M8.9139 10.809C8.9139 10.809 8.83624 10.9566 8.83624 10.9955C8.82327 11.1223 8.86218 11.521 8.89325 11.6478C8.92431 11.7825 9.09258 11.9869 9.31018 11.9869C9.44467 11.9869 9.63121 11.9042 9.63121 11.8835C9.63121 11.8576 9.43955 11.8323 9.38784 11.7359C9.35678 11.6847 9.3438 11.5574 9.33664 11.4287C9.33152 11.3459 9.33152 11.2553 9.36258 11.2239C9.43255 11.1462 9.44535 10.9235 9.44535 10.9235L9.69384 10.4619H9.36701L8.97602 10.7052L8.9139 10.809Z" />
    <path fill="#252211"
      d="M8.81818 10.9515C8.81818 10.9515 9.07418 10.6124 9.30492 10.5346C9.53566 10.4568 9.63891 10.5035 9.63891 10.5035L9.50425 10.8479L9.31259 11.0602L9.32557 11.1689C9.32557 11.1689 9.29433 11.4563 9.48599 11.6557C9.67765 11.855 9.81998 11.8473 9.90293 11.8473C9.98587 11.8473 10.224 11.7774 10.3456 11.49C10.4543 11.2208 10.545 10.8756 10.3275 10.5295C10.1151 10.1851 9.73977 10.1717 9.66724 10.1717C9.59471 10.1717 9.02519 10.2002 8.81818 10.951V10.9515Z" />
    <path fill="#F7F7E7"
      d="M15.3916 12.1035C15.2958 12.0595 15.3865 11.7903 15.4822 11.7074C15.5779 11.6244 15.6996 11.5289 15.9121 11.5157C15.9896 11.5106 16.0647 11.5598 16.0519 11.6116C16.0338 11.7074 15.8991 11.842 15.7775 11.9378C15.6092 12.0699 15.5003 12.1527 15.3916 12.1035Z" />
    <path fill="#F8F6DE"
      d="M10.2136 10.6356C10.2835 10.6305 10.3742 10.6868 10.3923 10.7626C10.4104 10.8454 10.3482 11.0111 10.2136 11.0111C10.1049 11.0111 10.0479 10.8764 10.0479 10.8377C10.0491 10.8058 10.058 10.7747 10.0738 10.7471C10.0789 10.7392 10.0919 10.6486 10.2136 10.6356V10.6356Z" />
    <path fill="#E2D59D"
      d="M9.22981 10.6822C9.19875 10.7003 9.14703 10.7262 9.15983 10.7598C9.1728 10.7909 9.28152 10.811 9.32043 10.8868C9.36446 10.9645 9.36446 11.0472 9.35149 11.0862C9.38531 11.0701 9.416 11.0481 9.44212 11.0213C9.49912 10.9566 9.56892 10.8687 9.62849 10.8687C9.6674 10.8687 9.70614 10.8868 9.74249 10.8868C9.79949 10.8868 9.85633 10.8687 9.86418 10.8092C9.87698 10.7315 9.75546 10.6615 9.68549 10.6745C9.69846 10.6233 9.71655 10.5477 9.65955 10.4958C9.60254 10.4439 9.42403 10.5347 9.38511 10.5607C9.3462 10.5866 9.22981 10.6824 9.22981 10.6824V10.6822Z" />
    <path fill="#CBAC5A"
      d="M13.3438 16.1217L13.7269 16.0085L13.8356 16.0862C13.8356 16.0862 13.9131 16.2519 14.035 16.2726C13.996 16.3553 13.895 16.4262 13.9003 16.4849C13.9056 16.5436 13.9573 16.5885 13.9573 16.5885C13.9573 16.5885 13.6129 17.158 14.2913 17.7319C14.1307 17.7966 13.9262 17.8855 13.8175 17.9367C13.895 17.9548 14.0607 17.9879 14.1307 18.0507C14.2007 18.1135 14.2007 18.1335 14.2654 18.1724C14.33 18.2113 14.3688 18.263 14.356 18.2862C14.3119 18.2603 14.1643 18.1828 14.1386 18.2552C14.1128 18.3275 13.4991 18.2992 13.4991 18.2992L12.4635 18.4986C12.4635 18.4986 12.5022 18.395 12.3935 18.2992C12.2667 18.1854 12.1114 18.3043 11.9457 18.1775C11.7282 18.0118 11.7204 17.8202 11.6506 17.7478C11.7204 17.7038 11.8629 17.6391 12.202 17.5942C12.189 17.5683 12.145 17.4906 12.1709 17.4208C12.202 17.3302 12.3314 17.2732 12.2926 17.1648C12.3496 17.1518 12.3754 17.1518 12.5179 16.9731C12.6526 16.7944 12.7353 16.7557 12.8389 16.7427C12.9425 16.7298 13.0046 16.7427 13.1963 16.564C13.3308 16.4372 13.2869 16.3285 13.2869 16.3285C13.2869 16.3285 13.3748 16.3 13.3439 16.1213L13.3438 16.1217Z" />
    <path fill="#6E6342"
      d="M7.41749 15.0084C7.41749 15.0084 7.36629 15.0731 7.33472 15.2259C7.30315 15.3786 7.31663 15.3605 7.29069 15.4692C7.26475 15.5779 6.94611 16.6602 7.06558 17.0252C7.18505 17.3903 7.39189 17.5249 7.52126 17.82C7.5472 17.8847 7.57246 17.9236 7.58594 17.9806C7.62997 18.1721 7.59123 18.3197 7.64295 18.5114C7.66104 18.5761 7.7078 18.6512 7.7776 18.7288C7.9312 18.8892 8.18157 19.042 8.2896 19.1507C8.44218 19.3113 8.65978 19.6376 8.93677 19.6685C9.0844 19.6866 9.29415 19.6245 9.46754 19.521C9.62114 19.4251 9.71603 19.2906 9.87714 19.2138C9.99098 19.1568 10.1127 19.1362 10.2214 19.1103C10.4467 19.0662 10.6513 19.059 10.773 19.0843C10.9593 19.1232 11.3995 19.2579 11.6434 19.2579C11.8339 19.2548 12.0234 19.2287 12.2078 19.1802C12.5779 19.0715 13.0258 18.885 13.321 18.8022C13.4944 18.751 13.6342 18.7375 13.7767 18.7065C14.0201 18.6494 14.2245 18.5718 14.3411 18.4242C14.2634 18.3335 14.1677 18.1938 13.6497 18.1989C13.0621 18.2119 12.3837 18.538 12.0497 18.5899C11.7157 18.6418 11.5708 18.6856 11.1979 18.551C10.8324 18.415 10.8202 18.325 10.8202 18.325C10.8202 18.325 10.4364 18.0566 10.2758 17.3722C10.1152 16.6878 10.2758 16.1891 10.6928 15.7152C10.8015 15.5935 10.7755 15.4848 10.7755 15.4848C10.7755 15.4848 11.05 15.1146 10.9749 14.768C10.8921 14.4236 10.3613 14.4935 10.3613 14.4935L7.41767 15.0084H7.41749Z" />
    <path fill="#292311"
      d="M8.53844 17.3179C8.53844 17.3179 8.39099 17.1781 8.4427 16.4997C8.5053 16.4988 8.5678 16.5049 8.62905 16.5178C8.62905 16.5178 8.70943 17.0435 8.53844 17.3179Z" />
    <path fill="#252211"
      d="M7.48751 14.4906C7.50809 14.4754 7.52717 14.4582 7.54451 14.4394C7.49331 14.5352 7.25694 14.9183 7.4486 15.5216C7.64026 16.1222 8.12171 16.57 8.7146 16.5908C9.3075 16.6117 9.61914 16.3215 9.97549 15.8867C10.1153 15.7133 10.2759 15.4957 10.4182 15.3482C10.6305 15.1176 10.7962 15.053 10.7962 14.8304C10.7962 14.3747 10.3301 14.1701 9.64405 13.9656C8.95797 13.7612 8.33914 13.7865 8.01811 13.9264C7.70494 14.079 7.57028 14.2396 7.48734 14.4908L7.48751 14.4906Z" />
    <path fill="#CBAF59"
      d="M10.6952 19.4048C10.6952 19.4048 11.3166 20.43 11.7827 21.305C11.6566 20.8647 11.3664 20.0571 10.6952 19.4048Z" />
    <path fill="#E3C677"
      d="M12.3651 20.914C12.7063 21.5171 13.014 22.1385 13.2867 22.7755C13.235 22.3353 13.0951 21.582 12.3651 20.914Z" />
    <path fill="#fff" fill-opacity=".8"
      d="M24.8001 12.0648C23.182 7.88616 19.1819 7.11201 19.1819 7.11201H7.76958L7.81361 11.3683H10.0864V20.8725H7.76941V25.1211H18.866C21.5403 25.1211 23.6841 22.4336 23.6841 22.4336C27.117 17.5613 24.7999 12.0648 24.7999 12.0648H24.8001ZM18.9256 19.5702C18.9256 19.5702 18.0551 20.8259 17.1081 20.8259H15.2137L15.1688 11.3787H17.6C17.6 11.3787 18.7264 11.6142 19.5133 13.8433C19.5133 13.8433 20.5566 17.0348 18.9256 19.5702V19.5702Z" />
  </symbol>

  <symbol id="icx" viewBox="0 0 32 32" fill="#18A0B1">
    <path
      d="M29.2414 5.51724C30.765 5.51724 32 4.28217 32 2.75862C32 1.23508 30.765 0 29.2414 0C27.7179 0 26.4828 1.23508 26.4828 2.75862C26.4828 4.28217 27.7179 5.51724 29.2414 5.51724Z" />
    <path
      d="M8.03312 20.7338C6.99416 18.9701 6.57056 16.9112 6.82887 14.8806C7.08717 12.85 8.01273 10.9627 9.46016 9.51531C10.9076 8.06789 12.7948 7.14232 14.8254 6.88402C16.8561 6.62572 18.9149 7.04932 20.6786 8.08827L22.8855 5.88138L22.7752 5.7931C20.4015 4.22847 17.5588 3.535 14.7313 3.83076C11.9037 4.12652 9.2661 5.39324 7.26755 7.4152C5.269 9.43717 4.0331 12.0894 3.7703 14.9202C3.5075 17.751 4.23405 20.5854 5.82622 22.9407L8.03312 20.7338Z" />
    <path
      d="M23.9669 11.3876C25.0059 13.1513 25.4295 15.2102 25.1712 17.2408C24.9129 19.2714 23.9873 21.1586 22.5399 22.6061C21.0925 24.0535 19.2052 24.9791 17.1746 25.2374C15.144 25.4957 13.0851 25.0721 11.3214 24.0331L9.1145 26.24C11.4782 27.8447 14.3273 28.5752 17.1715 28.3057C20.0157 28.0361 22.677 26.7835 24.6971 24.7633C26.7173 22.7431 27.9699 20.0819 28.2395 17.2377C28.509 14.3935 27.7785 11.5444 26.1738 9.18069L23.9669 11.3876Z" />
    <path
      d="M2.75862 32C4.28217 32 5.51724 30.7649 5.51724 29.2414C5.51724 27.7178 4.28217 26.4828 2.75862 26.4828C1.23508 26.4828 0 27.7178 0 29.2414C0 30.7649 1.23508 32 2.75862 32Z" />
  </symbol>
  <symbol id="copy" viewBox="0 0 24 24">
    <rect x="4" y="9" width="11" height="11" rx="2" fill="none" stroke="currentColor" stroke-width="2" />
    <path fill-rule="evenodd" clip-rule="evenodd"
      d="M11 3C9.34315 3 8 4.34315 8 6H10C10 5.44772 10.4477 5 11 5H18C18.5523 5 19 5.44772 19 6V13C19 13.5523 18.5523 14 18 14V16C19.6569 16 21 14.6569 21 13V6C21 4.34315 19.6569 3 18 3H11Z" />
  </symbol>
  <symbol id="check" viewBox="0 0 24 24">
    <path d="M3 10L10 17L21.5 5.5" fill="none" stroke="currentColor" stroke-width="2" />
  </symbol>
  <symbol id="chevron" viewBox="0 0 24 24">
    <path d="M16 3L7 12L16 21" fill="none" stroke="currentColor" stroke-width="2" />
  </symbol>
  <symbol id="metamask" viewBox="0 0 32 32">
    <path fill="#E2761B" stroke="#E2761B" stroke-linecap="round" stroke-linejoin="round"
      d="M27.5304 3.56543L17.5367 10.9879L19.3848 6.60874L27.5304 3.56543Z" />
    <path fill="#E4761B" stroke="#E4761B" stroke-linecap="round" stroke-linejoin="round"
      d="M4.5 3.6 14.4 11.1 12.6 6.6 4.5 3.6ZM23.9 20.8 21.3 24.8 27 26.4 28.6 20.9 23.9 20.8ZM3.4 20.9 5 26.4 10.7 24.8 8.1 20.8 3.4 20.9Z" />
    <path fill="#E4761B" stroke="#E4761B" stroke-linecap="round" stroke-linejoin="round"
      d="M10.4 13.9 8.8 16.3 14.5 16.5 14.3 10.5 10.4 13.9ZM21.6 13.9 17.7 10.4 17.5 16.5 23.2 16.3 21.6 13.9ZM10.7 24.8 14.1 23.2 11.2 20.9 10.7 24.8ZM17.9 23.2 21.3 24.8 20.8 20.9 17.9 23.2Z" />
    <path fill="#D7C1B3" stroke="#D7C1B3" stroke-linecap="round" stroke-linejoin="round"
      d="M21.3 24.8 17.9 23.2 18.1 25.4 18.1 26.3 21.3 24.8ZM10.7 24.8 13.9 26.3 13.9 25.4 14.1 23.2 10.7 24.8Z" />
    <path fill="#233447" stroke="#233447" stroke-linecap="round" stroke-linejoin="round"
      d="M13.9 19.4 11.1 18.6 13.1 17.7 13.9 19.4ZM18 19.4 18.9 17.7 20.9 18.6 18 19.4Z" />
    <path fill="#CD6116" stroke="#CD6116" stroke-linecap="round" stroke-linejoin="round"
      d="M10.7 24.8 11.2 20.8 8.1 20.9 10.7 24.8ZM20.8 20.8 21.3 24.8 23.9 20.9 20.8 20.8ZM23.2 16.3 17.5 16.5 18.1 19.4 18.9 17.7 20.9 18.6 23.2 16.3ZM11.1 18.6 13.1 17.7 13.9 19.4 14.5 16.5 8.8 16.3 11.1 18.6Z" />
    <path fill="#E4751F" stroke="#E4751F" stroke-linecap="round" stroke-linejoin="round"
      d="M8.8 16.3 11.2 20.9 11.1 18.6 8.8 16.3ZM20.9 18.6 20.8 20.9 23.2 16.3 20.9 18.6ZM14.5 16.5 13.9 19.4 14.6 22.9 14.8 18.4 14.5 16.5ZM17.5 16.5 17.3 18.3 17.4 22.9 18.1 19.4 17.5 16.5Z" />
    <path fill="#F6851B" stroke="#F6851B" stroke-linecap="round" stroke-linejoin="round"
      d="M18.1 19.4 17.4 22.9 17.9 23.2 20.8 20.9 20.9 18.6 18.1 19.4ZM11.1 18.6 11.2 20.9 14.1 23.2 14.6 22.9 13.9 19.4 11.1 18.6Z" />
    <path fill="#C0AD9E" stroke="#C0AD9E" stroke-linecap="round" stroke-linejoin="round"
      d="M18.1092 26.3452L18.1394 25.4111L17.8883 25.1901H14.1017L13.8707 25.4111L13.8908 26.3452L10.7269 24.8486L11.8318 25.7526L14.0716 27.3094H17.9184L20.1682 25.7526L21.2731 24.8486L18.1092 26.3452Z" />
    <path fill="#161616" stroke="#161616" stroke-linecap="round" stroke-linejoin="round"
      d="M17.8682 23.1913L17.3861 22.8599H14.6039L14.1218 23.1913L13.8707 25.411L14.1017 25.1901H17.8883L18.1394 25.411L17.8682 23.1913Z" />
    <path fill="#763D16" stroke="#763D16" stroke-linecap="round" stroke-linejoin="round"
      d="M28 11.5 28.8 7.4 27.5 3.6 17.9 10.7 21.6 13.9 26.8 15.4 28 14.1 27.5 13.7 28.3 13 27.7 12.5 28.5 11.9 28 11.5ZM3.2 7.4 4 11.5 3.5 11.9 4.3 12.5 3.7 13 4.5 13.7 4 14.1 5.2 15.4 10.4 13.9 14.1 10.7 4.5 3.6 3.2 7.4Z" />
    <path fill="#F6851B" stroke="#F6851B" stroke-linecap="round" stroke-linejoin="round"
      d="M26.8 15.4 21.6 13.9 23.2 16.3 20.8 20.9 23.9 20.9H28.6L26.8 15.4ZM10.4 13.9 5.2 15.4 3.4 20.9H8.1L11.2 20.9 8.8 16.3 10.4 13.9ZM17.5 16.5 17.9 10.7 19.4 6.6H12.6L14.1 10.7 14.5 16.5 14.6 18.4 14.6 22.9H17.4L17.4 18.4 17.5 16.5Z" />
  </symbol>
  <symbol id="eos" viewBox="0 0 32 32">
    <path
      d="M16 0L8.95181 9.982L6 24.738L16 31L26 24.738L22.988 9.92L16 0ZM7.62651 24.056L9.85542 12.834L14.9157 28.644L7.62651 24.056ZM10.5783 10.292L16 2.604L21.4217 10.292L16 27.156L10.5783 10.292ZM17.0241 28.644L22.0843 12.834L24.3133 24.056L17.0241 28.644Z"
      fill="black" />
  </symbol>
  <symbol id="neo" viewBox="0 0 32 32">
    <path d="M2 6.43446V27.1712L15.4494 32V11.095L30 5.72782L16.7944 1L2 6.43446Z" fill="#00E599" />
    <path d="M16.5506 11.6923V23.0324L30 27.8611V6.71216L16.5506 11.6923Z" fill="#00AF92" />
  </symbol>
  <symbol id="xmr" viewBox="0 0 32 32">
    <path
      d="M31.9995 16.0001C31.9995 24.8365 24.8369 32.0002 15.9999 32.0002C7.16301 32.0002 0.000335693 24.8365 0.000335693 16.0001C0.000335693 7.16379 7.16318 0 15.9999 0C24.8367 0 31.9995 7.16311 31.9995 16.0001Z"
      fill="white" />
    <path
      d="M16.0001 0C7.16623 0 -0.00918792 7.17393 0.00205788 15.9996C0.00427296 17.7654 0.285844 19.4639 0.814311 21.0527H5.60127V7.593L16.0001 17.9916L26.3983 7.593V21.053H31.1863C31.7156 19.4642 31.9957 17.7657 31.9988 15.9999C32.0139 7.16498 24.8348 0.00212987 16.0001 0.00212987V0Z"
      fill="#F26822" />
    <path
      d="M13.6085 20.3823L9.07043 15.844V24.3134H5.60088L2.32693 24.314C5.13521 28.9213 10.2104 32.0033 15.9999 32.0033C21.7894 32.0033 26.8649 28.9206 29.6737 24.3134H22.9284V15.844L18.3901 20.3823L15.9994 22.7729L13.6087 20.3823H13.6085Z"
      fill="#4D4D4D" />
  </symbol>
  <symbol id="twitter" viewBox="0 0 24 24">
    <path
      d="M22.4592 6.01238C21.6896 6.35373 20.8624 6.58442 19.9944 6.68815C20.8803 6.15701 21.5609 5.31598 21.8813 4.31378C21.052 4.80564 20.1336 5.16278 19.156 5.3552C18.3732 4.52112 17.2579 4 16.0235 4C13.6534 4 11.7317 5.92147 11.7317 8.29155C11.7317 8.6279 11.7697 8.95546 11.8429 9.2696C8.27609 9.0906 5.11375 7.38203 2.99709 4.78551C2.62765 5.41935 2.41601 6.15656 2.41601 6.94309C2.41601 8.43204 3.17364 9.74563 4.32523 10.5153C3.62179 10.4929 2.95996 10.2999 2.38139 9.97846C2.38098 9.99639 2.38098 10.0143 2.38098 10.0324C2.38098 12.1118 3.86033 13.8463 5.82359 14.2406C5.46349 14.3387 5.08434 14.3912 4.69294 14.3912C4.4164 14.3912 4.14755 14.3642 3.88546 14.3142C4.43161 16.0191 6.01653 17.26 7.89454 17.2945C6.42576 18.4457 4.57527 19.1318 2.56453 19.1318C2.21812 19.1318 1.87651 19.1114 1.54077 19.0717C3.44003 20.2894 5.69591 21 8.1195 21C16.0134 21 20.3302 14.4605 20.3302 8.78918C20.3302 8.60314 20.326 8.41805 20.3177 8.23395C21.1563 7.62886 21.8839 6.87302 22.4592 6.01238Z" />
  </symbol>
  <symbol id="phantom" viewBox="0 0 32 32">
    <path
      d="M16 32C24.8366 32 32 24.8366 32 16C32 7.16344 24.8366 0 16 0C7.16344 0 0 7.16344 0 16C0 24.8366 7.16344 32 16 32Z"
      fill="#5524EC" />
    <path
      d="M27.5294 16.3552H24.7302C24.7302 10.6361 20.0897 6 14.3649 6C8.71101 6 4.11433 10.5226 4.00183 16.1438C3.88544 21.9543 9.34212 27 15.1591 27H15.8908C21.0191 27 27.8927 22.9894 28.9666 18.1027C29.1649 17.2019 28.4527 16.3552 27.5294 16.3552ZM10.2052 16.61C10.2052 17.3748 9.57906 18.0003 8.81351 18.0003C8.04795 18.0003 7.42184 17.3745 7.42184 16.61V14.3608C7.42184 13.596 8.04795 12.9705 8.81351 12.9705C9.57906 12.9705 10.2052 13.596 10.2052 14.3608V16.61ZM15.0377 16.61C15.0377 17.3748 14.4116 18.0003 13.6461 18.0003C12.8804 18.0003 12.2544 17.3745 12.2544 16.61V14.3608C12.2544 13.596 12.8807 12.9705 13.6461 12.9705C14.4116 12.9705 15.0377 13.596 15.0377 14.3608V16.61Z"
      fill="white" />
  </symbol>

  <symbol id="solflare" viewBox="0 0 32 32">


    <path
      d="M16.1093 30.6627C16.4453 30.6627 16.7178 30.9321 16.7178 31.2644C16.7178 31.5968 16.4453 31.8662 16.1093 31.8662C15.7733 31.8662 15.5009 31.5968 15.5009 31.2644C15.5009 30.9321 15.7733 30.6627 16.1093 30.6627ZM15.4483 1.91664C15.7457 1.94119 15.9858 2.1665 16.026 2.4586L16.7497 7.71667C16.9928 9.45382 19.0879 10.2065 20.3812 9.02605L27.6319 2.42664C27.8068 2.26745 28.0792 2.27848 28.2403 2.45128C28.3881 2.60982 28.3926 2.85254 28.2506 3.01626L21.928 10.3096C20.764 11.6499 21.6228 13.7427 23.3972 13.8922L28.9759 14.43C29.2538 14.4567 29.457 14.7009 29.4299 14.9755C29.4076 15.2019 29.2332 15.3848 29.0057 15.4202L23.1437 16.3356C21.4417 16.5676 20.671 18.583 21.778 19.8924L23.8388 22.3219C24.0048 22.5176 23.9788 22.8093 23.7807 22.9733C23.6129 23.1123 23.3699 23.1177 23.1958 22.9863L20.6554 21.0677C19.2845 20.0367 17.3084 20.913 17.1635 22.6193L16.6037 29.2737C16.5805 29.5486 16.3363 29.7529 16.0581 29.73C15.822 29.7107 15.6312 29.5318 15.5992 29.2999L14.7114 22.8719C14.4735 21.1347 12.3784 20.3821 11.0799 21.5626L3.36662 28.5859C3.20696 28.7313 2.95825 28.7212 2.8111 28.5635C2.6761 28.4188 2.672 28.1972 2.80155 28.0477L9.53318 20.279C10.6972 18.9388 9.84352 16.8458 8.06912 16.6964L2.48914 16.1585C2.2113 16.1318 2.00804 15.8875 2.03515 15.613C2.0575 15.3866 2.23188 15.2038 2.45928 15.1682L8.31744 14.2531C10.0195 14.0211 10.7954 12.0056 9.68838 10.6962L8.2855 9.04237C8.07962 8.79968 8.11187 8.43802 8.35757 8.23462C8.56576 8.06221 8.8672 8.05562 9.08294 8.21869L10.8057 9.5209C12.1766 10.5519 14.1527 9.67558 14.2976 7.96934L14.761 2.49096C14.7903 2.14484 15.098 1.88771 15.4483 1.91664V1.91664ZM0.608429 14.998C0.944454 14.998 1.21686 15.2675 1.21686 15.5998C1.21686 15.9322 0.944454 16.2016 0.608429 16.2016C0.272403 16.2016 0 15.9322 0 15.5998C0 15.2675 0.272403 14.998 0.608429 14.998V14.998ZM31.1235 14.387C31.4595 14.387 31.7319 14.6564 31.7319 14.9888C31.7319 15.3212 31.4595 15.5905 31.1235 15.5905C30.7875 15.5905 30.515 15.3212 30.515 14.9888C30.515 14.6564 30.7875 14.387 31.1235 14.387ZM15.3605 0C15.6965 0 15.9689 0.269423 15.9689 0.601773C15.9689 0.934125 15.6965 1.20355 15.3605 1.20355C15.0244 1.20355 14.7521 0.934125 14.7521 0.601773C14.7521 0.269423 15.0244 0 15.3605 0Z"
      fill="#FC5A27" />
    <path
      d="M15.7254 20.9787C18.8996 20.9787 21.4727 18.4337 21.4727 15.2943C21.4727 12.1549 18.8996 9.60986 15.7254 9.60986C12.5513 9.60986 9.97809 12.1549 9.97809 15.2943C9.97809 18.4337 12.5513 20.9787 15.7254 20.9787Z"
      fill="#FE7F1D" />


  </symbol>
  <symbol id="sollet" viewBox="0 0 32 32">
    <path
      d="M2.69922 30.7422C2.04297 30.4023 1.60938 29.9805 1.28125 29.3359C1 28.7852 1 28.7852 1 16C1 3.21484 1 3.21484 1.28125 2.66406C1.62109 2.00781 2.04297 1.58594 2.72266 1.24609C3.21484 1 3.22656 1 16 1C28.7852 1 28.7852 1 29.3359 1.28125C29.9922 1.62109 30.4141 2.04297 30.7539 2.72266C31 3.21484 31 3.22656 31 16C31 28.7734 31 28.7852 30.7539 29.2773C30.4141 29.957 29.9922 30.3789 29.3359 30.7188C28.7852 31 28.7852 31 15.9766 31C3.26172 30.9883 3.16797 30.9883 2.69922 30.7422ZM17.9336 25.082C19.7383 24.6133 21.1094 23.5938 21.7773 22.2227C22.1055 21.5312 22.1523 21.3438 22.1523 20.3945C22.1523 19.4453 22.1172 19.2578 21.7773 18.5547C21.3203 17.5938 20.5586 16.7969 19.457 16.1406C18.7188 15.7188 17.957 15.4375 15.2383 14.5938C13.5742 14.0781 12.4727 13.3047 12.25 12.4844C11.8281 10.9492 12.4141 9.54297 13.75 8.88672C14.3828 8.58203 14.5 8.55859 16.0117 8.55859C17.5938 8.55859 17.5938 8.55859 18.4961 9.00391C19.293 9.40234 19.3984 9.48438 19.4453 9.82422C19.8203 12.25 19.7266 12.0742 20.6641 12.1094C21.5078 12.1445 21.5078 12.1445 21.5078 10.3867C21.5078 8.64062 21.5078 8.64062 20.8047 8.17188C20.0195 7.64453 18.5195 7.02344 17.6172 6.85938C16.7031 6.68359 14.7344 6.71875 13.9492 6.91797C12.3086 7.33984 10.9961 8.33594 10.3516 9.64844C9.98828 10.375 9.96484 10.5156 9.96484 11.6055C9.96484 12.6484 10 12.8477 10.2812 13.4336C11.043 14.9688 12.8359 16.0938 15.7656 16.8789C17.6406 17.3711 18.3789 17.6992 19.0234 18.2734C20.3125 19.4453 20.207 21.707 18.8359 22.7617C18.1094 23.3125 17.3477 23.5 15.8594 23.5C14.418 23.5 13.4219 23.3008 12.543 22.8203C11.8984 22.4688 11.9336 22.5391 11.6641 20.6641C11.5234 19.6328 11.5234 19.6328 10.6562 19.6328C9.78906 19.6328 9.78906 19.6328 9.78906 21.4844C9.78906 23.3242 9.78906 23.3242 10.293 23.6289C11.4531 24.3672 12.5547 24.8242 13.7734 25.0938C14.7227 25.3047 17.1016 25.293 17.9336 25.082Z"
      fill="#2096F3" />
    <path
      d="M13.6562 25.2109C12.4375 24.9414 11.3359 24.4844 10.1758 23.7461C9.67188 23.4414 9.67188 23.4414 9.67188 21.4844C9.67188 19.5156 9.67188 19.5156 10.6562 19.5156C11.6406 19.5156 11.6406 19.5156 11.7812 20.5469C12.0508 22.4219 12.0156 22.3516 12.6602 22.7031C13.5156 23.1601 14.5352 23.3828 15.8594 23.3828C17.2188 23.3828 18.0156 23.1836 18.7188 22.6445C20.0781 21.6133 20.1719 19.5391 18.9062 18.3906C18.2617 17.8164 17.5234 17.4883 15.6484 16.9961C11.9688 16.0234 10.1055 14.5117 9.8125 12.3086C9.47266 9.68358 11.0547 7.51561 13.832 6.80077C14.6172 6.60155 16.8086 6.56639 17.7344 6.74218C18.6367 6.90624 20.1367 7.52733 20.9219 8.05468C21.625 8.52343 21.625 8.52343 21.625 10.3867C21.625 12.2617 21.625 12.2617 20.6641 12.2266C19.5977 12.1914 19.7031 12.3789 19.3281 9.94139C19.2812 9.60155 19.1758 9.51952 18.3789 9.12108C17.4766 8.67577 17.4766 8.67577 16.0117 8.67577C14.6289 8.67577 14.4883 8.69921 13.8672 9.0039C12.5547 9.64843 11.9688 10.9492 12.3672 12.3672C12.5898 13.1875 13.6914 13.9609 15.3555 14.4766C18.0742 15.3203 18.8359 15.6016 19.5742 16.0234C20.6758 16.6797 21.4375 17.4766 21.8945 18.4375C22.2344 19.1641 22.2695 19.3164 22.2695 20.3945C22.2695 21.4726 22.2344 21.625 21.8945 22.3398C21.2148 23.7109 19.8555 24.7305 18.0508 25.1992C17.207 25.4101 14.6172 25.4219 13.6562 25.2109Z"
      fill="#FAFDFE" />
  </symbol>
  <symbol id="solong" viewBox="0 0 32 32">
    <circle cx="16" cy="16" r="16" fill="#313232" />
    <path
      d="M13.1875 13.7874C13.225 13.4499 13.4625 12.7624 13.7 12.2374C13.9375 11.7124 14.125 11.1124 14.125 10.8999C14.125 10.6999 13.9625 10.1374 13.7625 9.67493C13.2875 8.53743 13.1 7.61243 13.15 6.62493L13.1875 5.81243L14.0625 5.77493L14.9375 5.73743V6.83743C14.9375 7.82493 14.9875 8.04993 15.425 9.12493C16.0625 10.6749 16.0625 11.2249 15.45 12.5874C15.2 13.1374 14.9625 13.7749 14.925 13.9874L14.85 14.3749H13.975H13.1L13.1875 13.7874Z"
      fill="#FB50ED" />
    <path
      d="M13.15 26.9375C10.3875 26.3125 8.075 24.1375 7.1875 21.3375C6.9 20.45 6.875 20.1625 6.875 18.1125V15.875H12.4875H18.1125L18.0875 16.975L18.0625 18.0625L13.5625 18.125L9.0625 18.1875L9.1 19.0625C9.225 22.0125 11.1625 24.275 13.975 24.75C16.2125 25.125 18.625 23.975 19.8 21.975L20.15 21.375L19.9 21.0375C19.325 20.2 19.2 18.8375 19.625 17.9125C19.9625 17.15 20.875 16.3125 21.65 16.05C22.925 15.625 24.25 15.9875 25.2125 17.0375C26.0875 17.975 26.2875 19.35 25.75 20.6C25.225 21.8 23.8 22.7125 22.6 22.6C22.1125 22.55 22.0875 22.575 21.6625 23.25C21.0875 24.1625 19.9875 25.275 19.0625 25.875C17.45 26.9125 14.9875 27.3625 13.15 26.9375ZM23.3625 20.05C24.15 19.3875 23.675 18.125 22.625 18.125C22.225 18.125 21.625 18.7875 21.625 19.2125C21.625 19.825 22.1375 20.3375 22.775 20.3625C22.8875 20.375 23.15 20.225 23.3625 20.05Z"
      fill="#05FFBD" />
    <path
      d="M8.29996 13.8C8.33746 13.475 8.57496 12.7875 8.81246 12.25C9.04996 11.7125 9.24996 11.125 9.24996 10.9375C9.24996 10.75 9.04996 10.0625 8.79996 9.4C8.34996 8.175 8.12496 6.75 8.29996 6.075C8.37496 5.7625 8.41246 5.75 9.32496 5.75C10.2375 5.75 10.2625 5.75 10.1125 6.025C9.84996 6.5125 10.05 7.8375 10.575 9.125C11.2 10.675 11.2 11.2 10.575 12.5875C10.325 13.15 10.0875 13.7875 10.05 13.9875L9.97496 14.375H9.08746H8.21246L8.29996 13.8Z"
      fill="#05FFBD" />
    <path
      d="M18.0375 13.7875C18.075 13.45 18.3125 12.75 18.5625 12.225C19.1125 11.075 19.1 10.875 18.45 9.0625C18.1125 8.1 18 7.625 18 6.975C18 5.7625 18.0125 5.75 19 5.75H19.8375L19.775 6.6625C19.725 7.4875 19.7625 7.675 20.225 8.9C20.5 9.625 20.7625 10.4 20.8125 10.6125C20.9 11.0375 20.65 11.9375 20.175 12.8875C20.025 13.2 19.8625 13.6625 19.8125 13.9125L19.725 14.375H18.8375H17.9625L18.0375 13.7875Z"
      fill="#05FFBD" />
    <circle cx="22.8148" cy="19.2593" r="1.18519" fill="#313232" />
  </symbol>
  <symbol id="slope" viewBox="0 0 32 32">
    <path
      d="M16 32C24.8366 32 32 24.8366 32 16C32 7.16344 24.8366 0 16 0C7.16344 0 0 7.16344 0 16C0 24.8366 7.16344 32 16 32Z"
      fill="#6E66FA" />
    <path d="M8.79907 13.6H13.5991V18.4H8.79907V13.6Z" fill="white" />
    <path d="M18.3992 13.5999L13.5992 18.3999V13.5999L18.3992 8.79993V13.5999Z" fill="white" fill-opacity="0.4" />
    <path d="M18.3992 18.4L13.5992 23.2V18.4L18.3992 13.6V18.4Z" fill="white" fill-opacity="0.75" />
    <path d="M18.401 13.6H23.201V18.4H18.401V13.6Z" fill="white" />
    <path d="M13.5993 8.8L18.3993 4V8.8L13.5993 13.6H8.79926L13.5993 8.8Z" fill="white" fill-opacity="0.75" />
    <path d="M18.3979 23.2L13.5979 28V23.2L18.3979 18.4H23.1979L18.3979 23.2Z" fill="white" fill-opacity="0.4" />
  </symbol>
  <symbol id="ada" viewBox="0 0 32 32" fill="#0033AD">
    <path
      d="M8.8 14.7C8.7 15.9 9.6 16.9 10.8 16.9 10.8 16.9 10.9 16.9 10.9 16.9 12.1 16.9 13.1 16 13.1 14.8 13.1 13.6 12.1 12.6 10.9 12.6 9.8 12.6 8.8 13.5 8.8 14.7ZM.7 14.1C.3 14.1 0 14.4 0 14.8 0 15.2.3 15.5.7 15.5 1 15.5 1.4 15.2 1.4 14.9 1.4 14.5 1.1 14.1.7 14.1ZM8.6 2.2C9 2 9.1 1.6 8.9 1.2 8.8.9 8.3.8 8 .9 7.7 1.1 7.5 1.5 7.7 1.9 7.9 2.2 8.3 2.3 8.6 2.2 8.6 2.2 8.6 2.2 8.6 2.2ZM10.8 6C11.3 5.7 11.6 5.1 11.3 4.5 11 4 10.4 3.8 9.9 4.1 9.3 4.3 9.1 5 9.4 5.5 9.6 6 10.3 6.2 10.8 6ZM3.5 8.6C3.9 8.9 4.4 8.8 4.7 8.3 5 7.9 4.8 7.4 4.4 7.1 4 6.9 3.5 7 3.2 7.4 2.9 7.8 3.1 8.3 3.5 8.6ZM4.8 13.7C4.2 13.7 3.7 14.2 3.6 14.8 3.6 15.4 4.1 15.9 4.7 15.9 5.2 15.9 5.8 15.5 5.8 14.9 5.8 14.3 5.4 13.8 4.8 13.7ZM3.6 21C3.1 21.2 3 21.7 3.2 22.2 3.4 22.6 3.9 22.8 4.4 22.6 4.8 22.3 5 21.8 4.8 21.4 4.6 20.9 4 20.7 3.6 21ZM7.8 11.5C8.4 11.9 9.1 11.7 9.5 11.1 9.9 10.6 9.7 9.8 9.1 9.4 8.6 9 7.8 9.2 7.4 9.8 7 10.3 7.2 11.1 7.8 11.5ZM21 5.9C21.5 6.2 22.2 6.1 22.5 5.6 22.9 5.1 22.7 4.4 22.2 4.1 21.7 3.8 21.1 3.9 20.7 4.4 20.4 4.9 20.5 5.6 21 5.9ZM23.2 2.1C23.6 2.3 24 2.2 24.2 1.9 24.4 1.6 24.3 1.1 24 .9 23.7.7 23.2.8 23 1.1 22.8 1.5 22.9 1.9 23.2 2.1ZM21.2 12.6C20 12.6 19 13.5 18.9 14.7 18.9 15.8 19.8 16.9 21 16.9 21 16.9 21 16.9 21.1 16.9 22.3 16.9 23.2 16 23.2 14.8 23.2 13.6 22.3 12.7 21.2 12.6ZM11.5 11.4C11.9 12.1 12.6 12.5 13.5 12.5 14.6 12.5 15.6 11.6 15.6 10.4 15.6 10.1 15.5 9.7 15.4 9.4 14.8 8.3 13.5 7.9 12.5 8.5 11.4 9 11 10.3 11.5 11.4ZM28.4 8.6C28.9 8.4 29 7.8 28.8 7.4 28.6 7 28 6.8 27.6 7 27.2 7.2 27 7.8 27.2 8.2 27.4 8.6 28 8.8 28.4 8.6ZM23 9.3C22.3 9.6 22.1 10.4 22.4 11 22.7 11.6 23.5 11.9 24.1 11.5 24.7 11.2 25 10.5 24.7 9.8 24.3 9.2 23.6 9 23 9.3ZM15.9 1.8C16.4 1.8 16.8 1.4 16.9.9 16.9.5 16.5 0 16 0 15.5 0 15.1.3 15.1.8 15.1 1.3 15.4 1.7 15.9 1.8ZM15.9 7.3C16.6 7.4 17.2 6.9 17.2 6.2 17.3 5.5 16.7 4.9 16 4.8 15.3 4.8 14.7 5.3 14.7 6 14.7 6.7 15.2 7.3 15.9 7.3ZM9 20.3C9.7 20 9.9 19.2 9.6 18.6 9.3 18 8.5 17.7 7.9 18 7.3 18.3 7 19.1 7.3 19.7 7.7 20.3 8.4 20.6 9 20.3ZM16.7 9.2C16.1 10.2 16.3 11.5 17.3 12.2 18.3 12.8 19.7 12.6 20.3 11.6 21 10.6 20.7 9.2 19.7 8.6 19.4 8.3 18.9 8.2 18.5 8.2 17.8 8.2 17.1 8.6 16.7 9.2ZM20.5 18.2C19.9 17.1 18.6 16.7 17.6 17.3 16.5 17.8 16.1 19.1 16.6 20.1 17.2 21.2 18.5 21.6 19.5 21.1 20.6 20.6 21 19.3 20.5 18.2 20.5 18.2 20.5 18.2 20.5 18.2ZM24.2 18.1C23.6 17.7 22.9 17.8 22.5 18.4 22.1 19 22.3 19.8 22.9 20.2 23.4 20.6 24.2 20.4 24.6 19.8 25 19.2 24.8 18.4 24.2 18.1ZM28.4 14.8C28.4 14.2 27.9 13.7 27.3 13.7 26.8 13.7 26.2 14.1 26.2 14.7 26.2 15.3 26.6 15.8 27.2 15.8 27.8 15.9 28.3 15.4 28.4 14.8ZM31.3 14.1C31 14 30.6 14.3 30.6 14.7 30.6 15.1 30.9 15.4 31.3 15.4 31.7 15.5 32 15.2 32 14.8 32 14.4 31.7 14.1 31.3 14.1ZM28.5 21C28.1 20.7 27.6 20.8 27.3 21.2 27 21.6 27.2 22.2 27.6 22.5 28 22.7 28.5 22.6 28.8 22.2 29.1 21.8 28.9 21.2 28.5 21ZM8.8 27.5C8.4 27.3 8 27.3 7.8 27.7 7.6 28 7.7 28.4 8 28.6 8.3 28.8 8.7 28.7 9 28.4 9.2 28.1 9.1 27.7 8.8 27.5ZM23.4 27.4C23 27.6 22.9 28 23.1 28.3 23.2 28.7 23.7 28.8 24 28.6 24.3 28.5 24.5 28.1 24.3 27.7 24.1 27.4 23.7 27.2 23.4 27.4 23.4 27.4 23.4 27.4 23.4 27.4ZM15.3 20.4C15.9 19.4 15.7 18 14.7 17.4 13.7 16.7 12.3 17 11.7 18 11 19 11.3 20.3 12.3 21 12.6 21.2 13 21.3 13.5 21.3 14.2 21.4 14.9 21 15.3 20.4ZM11 23.7C10.5 23.3 9.8 23.5 9.5 24 9.1 24.5 9.3 25.1 9.8 25.5 10.3 25.8 10.9 25.7 11.3 25.2 11.6 24.7 11.5 24 11 23.7ZM16 27.8C15.5 27.8 15.1 28.1 15.1 28.6 15 29.1 15.4 29.5 15.9 29.6 16.4 29.6 16.8 29.2 16.8 28.7 16.9 28.2 16.5 27.8 16 27.8ZM16 22.2C15.3 22.2 14.7 22.7 14.7 23.4 14.6 24.1 15.2 24.7 15.9 24.7 16.6 24.8 17.2 24.3 17.2 23.6 17.2 22.9 16.7 22.3 16 22.2ZM21.2 23.6C20.7 23.9 20.4 24.5 20.7 25 21 25.6 21.6 25.8 22.2 25.5 22.7 25.2 22.9 24.6 22.6 24.1 22.4 23.5 21.7 23.3 21.2 23.6Z" />
  </symbol>
  <symbol id="luna" viewBox="0 0 32 32">
    <path
      d="M16 32C24.8366 32 32 24.8366 32 16C32 7.16344 24.8366 0 16 0C7.16344 0 0 7.16344 0 16C0 24.8366 7.16344 32 16 32Z"
      fill="#172852" />
    <path
      d="M12.888 7.15038C14.7616 6.44958 16.8704 6.44798 18.7792 7.02398C21.264 7.79518 23.3616 9.67038 24.4576 12.024C24.76 12.6944 25.0496 13.3936 25.0784 14.1392C23.6816 13.3296 22.1504 12.8048 20.616 12.3264C18.1616 11.4416 15.592 10.8272 13.2688 9.61118C12.728 9.28798 12.0384 8.95678 11.8912 8.28318C11.832 7.70078 12.448 7.37598 12.888 7.15038Z"
      fill="#FFD83D" />
    <path
      d="M7.23198 12.8143C7.77438 11.3423 8.66398 9.97593 9.87198 8.96313C10.1792 11.4895 11.2544 13.9311 13.0304 15.7679C15.16 17.9807 18.1936 19.3391 21.28 19.2879C22.5056 19.3263 23.704 19.0431 24.8992 18.8143C23.7232 23.0639 19.0656 25.8847 14.7504 25.2063C12.1456 24.8735 9.74078 23.3311 8.28958 21.1535C6.65278 18.7471 6.23998 15.5519 7.23198 12.8143Z"
      fill="#FFD83D" />
    <path
      d="M21 12C22.3053 12.4977 23.6079 13.0436 24.7962 13.8858L24.8765 13.9374C24.9867 14.9511 25.067 15.9847 24.92 17C24.3225 16.6904 23.8379 16.1461 23.3316 15.6651C22.357 14.6731 21.3621 13.5379 21 12Z"
      fill="#FF6F03" />
  </symbol>
  <symbol id="cspr" viewBox="0 0 32 32">
    <path
      d="M28.3851 24.7615C27.6183 24.7615 26.9677 25.2943 26.805 26.0355L20.7054 25.746C20.7286 25.6302 20.7403 25.5144 20.7403 25.3985C20.7403 25.1901 20.7054 24.9816 20.6473 24.7731L22.8664 23.4991C23.4125 24.1709 24.4 24.3099 25.1087 23.8003C25.8174 23.2907 26.0033 22.3178 25.527 21.5882C25.0506 20.8585 24.0863 20.6269 23.3311 21.0554C22.576 21.4839 22.2855 22.4336 22.6805 23.2096L20.5311 24.4488C20.0199 23.3717 18.7535 22.8853 17.6498 23.337C16.5461 23.7887 15.9884 25.0279 16.3834 26.1513L12.3867 27.1126C12.3635 26.5683 12.1311 26.0587 11.7477 25.6649L12.4681 24.6689C13.2813 24.9468 14.1759 24.5415 14.5013 23.7424C14.8266 22.9432 14.4664 22.0283 13.688 21.6693C12.9096 21.2986 11.9685 21.6113 11.5618 22.3641C11.1552 23.117 11.4108 24.0666 12.1428 24.5183L11.4805 25.4333C11.0158 25.0858 10.4232 24.9353 9.84234 25.0048L9.15686 21.1018C10.0166 20.9164 10.6789 20.2447 10.8647 19.3993C11.0506 18.5422 10.7253 17.662 10.0282 17.1408C9.33113 16.6081 8.39005 16.5386 7.62325 16.9439L5.89213 13.5737C6.26391 13.3884 6.56598 13.0988 6.78673 12.7514L8.2274 13.1336C8.21578 13.2147 8.20416 13.2842 8.20416 13.3652C8.20416 14.1991 8.84316 14.9056 9.67968 14.9867C10.5162 15.0677 11.283 14.5002 11.434 13.6663C11.5851 12.8325 11.0855 12.0333 10.2722 11.8133C9.45893 11.5817 8.6108 12.0102 8.30872 12.7977L6.94939 12.4387C7.13528 11.9986 7.17013 11.5122 7.05395 11.0489L11.0623 9.20742C11.8058 10.134 13.1535 10.3308 14.1295 9.63594C15.1054 8.94105 15.361 7.60916 14.7104 6.61314L17.2664 4.12309C17.5801 4.31998 17.9403 4.44738 18.3004 4.47054V5.57079C17.4523 5.66345 16.8133 6.40467 16.8598 7.26171C16.9062 8.11875 17.615 8.79049 18.4747 8.79049C19.3345 8.79049 20.0432 8.11875 20.0896 7.26171C20.1361 6.40467 19.5087 5.66345 18.649 5.57079V4.47054C18.9743 4.44738 19.2764 4.35472 19.5552 4.20416L22.3552 7.38911C21.7046 8.24615 21.7511 9.43906 22.4598 10.2382C23.1801 11.0373 24.3652 11.2226 25.2946 10.6667C26.2241 10.1108 26.6191 8.98737 26.2589 7.97977L27.1303 7.49334C27.688 8.14191 28.6523 8.25773 29.3378 7.73656C30.0233 7.22697 30.1859 6.26569 29.7096 5.55921C29.2332 4.85273 28.2805 4.63268 27.5486 5.07278C26.8166 5.51289 26.5494 6.43942 26.9444 7.2038L26.1195 7.66707C25.7826 7.05324 25.1784 6.6363 24.493 6.53207C23.8075 6.42783 23.0988 6.64788 22.5992 7.13431L19.8573 4.01886C20.1245 3.81039 20.3452 3.53243 20.4963 3.23131L22.9013 3.62508C23.0872 4.45896 23.9004 5.00329 24.7369 4.85273C25.5851 4.71375 26.166 3.93779 26.0731 3.09233C25.9801 2.24687 25.2365 1.60988 24.3884 1.65621C23.5287 1.70253 22.8664 2.39743 22.8548 3.25447L20.6241 2.88386C20.9378 1.81835 20.4266 0.683349 19.4158 0.208502C18.405 -0.266344 17.2083 0.0811044 16.5925 1.00763C15.9768 1.93416 16.1394 3.1734 16.9759 3.91462L14.4896 6.33518C14.1062 5.89508 13.5602 5.61712 12.9793 5.57079V3.87988C13.8274 3.78722 14.4664 3.046 14.4199 2.18896C14.3735 1.33192 13.6764 0.671767 12.8166 0.671767C11.9569 0.671767 11.2481 1.3435 11.2017 2.20054C11.1552 3.05758 11.7826 3.79881 12.6423 3.89146V5.57079C11.8755 5.6287 11.1901 6.08039 10.8299 6.75212C10.4697 7.43544 10.4813 8.24615 10.8647 8.91788L6.96101 10.7015C6.82159 10.3656 6.60084 10.076 6.322 9.84441L7.84399 7.11115C7.98341 7.1459 8.11121 7.16906 8.25063 7.16906C9.07553 7.16906 9.76101 6.55523 9.86557 5.74452C9.97014 4.9338 9.4357 4.181 8.64565 3.98411C7.84399 3.78722 7.03071 4.21574 6.74026 4.98013C6.4498 5.74452 6.78673 6.60156 7.50706 6.98375L6.03154 9.64753C5.13694 9.11477 4.00997 9.26533 3.27802 10.0066C2.55768 10.7478 2.42988 11.8712 2.97594 12.7514C3.522 13.6316 4.59088 14.0254 5.57843 13.7127L7.33279 17.1293C6.8913 17.4535 6.5776 17.94 6.47304 18.4727L5.19503 18.1021C5.22988 17.9747 5.2415 17.8357 5.2415 17.7083C5.2415 16.886 4.62573 16.2027 3.81246 16.1101C2.99918 16.0174 2.24399 16.5386 2.04648 17.3377C1.84897 18.1369 2.29046 18.9476 3.06889 19.2255C3.83569 19.5035 4.69544 19.1676 5.06723 18.438L6.42657 18.8318C6.42657 18.8665 6.42657 18.9012 6.42657 18.936C6.42657 19.7004 6.80997 20.4069 7.46059 20.8122L6.58922 21.9472C5.95022 21.3797 4.97428 21.4145 4.37013 22.0283C3.76598 22.6421 3.74275 23.6034 4.32366 24.2404C4.90457 24.8774 5.86889 24.9468 6.54275 24.4025C7.21661 23.8582 7.33279 22.8969 6.8332 22.202L7.77428 20.9744C8.05312 21.1018 8.36682 21.1597 8.68051 21.1597C8.72698 21.1597 8.77345 21.1597 8.81993 21.1481L9.51702 25.0742C8.58756 25.3522 7.93694 26.1977 7.90208 27.1589C7.87885 28.1318 8.483 29.0004 9.40084 29.3247C10.3187 29.649 11.3411 29.3479 11.9336 28.5719L15.1867 30.0196C15.1635 30.1354 15.1403 30.2628 15.1403 30.3786C15.1403 31.2009 15.756 31.8958 16.5809 31.9885C17.4058 32.0811 18.161 31.5484 18.3469 30.7492C18.5328 29.9501 18.0797 29.1394 17.3013 28.8614C16.5228 28.5835 15.6631 28.9425 15.3029 29.6837L12.1311 28.2708C12.2706 28.016 12.3635 27.738 12.3867 27.4485L16.5228 26.4409C16.8365 27.02 17.3942 27.4253 18.0448 27.5643C18.6955 27.6917 19.3693 27.5296 19.8805 27.1242L21.4257 28.4561C21.0656 29.2436 21.3793 30.1702 22.1461 30.5639C22.9129 30.9693 23.854 30.7029 24.2955 29.9617C24.7369 29.2205 24.5278 28.2708 23.8191 27.7843C23.0988 27.2979 22.1345 27.4601 21.6116 28.1434L20.1361 26.881C20.3569 26.6493 20.5195 26.3598 20.6241 26.0587L26.7701 26.3598C26.7818 27.2516 27.5021 27.9581 28.3967 27.9581C29.2913 27.9581 30.0116 27.2284 30 26.3482C30 25.4796 29.2797 24.7615 28.3851 24.7615Z"
      fill="#FF473E" />
  </symbol>
  <symbol id="hbar" viewBox="0 0 32 32">
    <path
      d="M16 0C7.16339 0 0 7.16339 0 16C0 24.8366 7.16339 32 16 32C24.8366 32 32 24.8366 32 16C32 7.16339 24.8366 0 16 0Z"
      fill="black" />
    <path
      d="M22.5039 22.9199H20.472V18.6001H11.5279V22.9199H9.49585V8.91199H11.5279V13.1279H20.472V8.91199H22.504L22.5039 22.9199ZM11.6239 16.9839H20.5679V14.752H11.6239V16.9839Z"
      fill="white" />
  </symbol>
  <symbol id="algo" viewBox="0 0 32 32">
    <path
      d="M6.85664 30L10.9204 22.9877L14.9841 16L19.023 8.98765L19.692 7.87654L19.9894 8.98765L21.2283 13.6049L19.8407 16L15.777 22.9877L11.7381 30H16.5947L20.6584 22.9877L22.7646 19.358L23.7558 22.9877L25.6389 30H30L28.1168 22.9877L26.2336 16L25.7381 14.1975L28.7611 8.98765H24.3504L24.2018 8.46914L22.6655 2.74074L22.4673 2H18.2301L18.131 2.14815L14.1664 8.98765L10.1027 16L6.06372 22.9877L2 30H6.85664Z"
      fill="black" />
  </symbol>
</svg>